<?xml version="1.0" encoding="UTF-8" standalone="no"?>
<!-- Created with Inkscape (http://www.inkscape.org/) -->

<svg
   version="1.1"
   id="svg1"
   width="451.55865"
   height="242.89067"
   viewBox="0 0 451.55865 242.89067"
   xmlns="http://www.w3.org/2000/svg"
   xmlns:svg="http://www.w3.org/2000/svg">
  <defs
     id="defs1">
    <clipPath
       clipPathUnits="userSpaceOnUse"
       id="clipPath20">
      <path
         d="M 0,-12.80026 H 298.88306 V 140.79527 H 0 Z"
         id="path20" />
    </clipPath>
    <clipPath
       clipPathUnits="userSpaceOnUse"
       id="clipPath22">
      <path
         d="M 0,-12.80026 H 298.88306 V 140.79527 H 0 Z"
         id="path22" />
    </clipPath>
  </defs>
  <g
     id="g1">
    <path
       id="path1"
       d="M 0,-12.80026 V 140.79527 M 29.8883,-12.80026 V 140.79527 M 59.77661,-12.80026 V 140.79527 M 89.66492,-12.80026 v 153.59553 m 29.8883,-153.59553 v 153.59553 m 29.88831,-153.59553 v 153.59553 m 29.8883,-153.59553 v 153.59553 m 29.88831,-153.59553 v 153.59553 m 29.88831,-153.59553 v 153.59553 m 29.8883,-153.59553 v 153.59553 m 29.88831,-153.59553 v 153.59553"
       style="fill:none;stroke:#bfbfbf;stroke-width:0.3985;stroke-linecap:butt;stroke-linejoin:miter;stroke-miterlimit:10;stroke-dasharray:none;stroke-opacity:1"
       transform="matrix(1.3333333,0,0,-1.3333333,39.328,190.64667)" />
    <path
       id="path2"
       d="M 0,55.22922 H 298.88306 M 0,127.99501 h 298.88306"
       style="fill:none;stroke:#bfbfbf;stroke-width:0.3985;stroke-linecap:butt;stroke-linejoin:miter;stroke-miterlimit:10;stroke-dasharray:none;stroke-opacity:1"
       transform="matrix(1.3333333,0,0,-1.3333333,39.328,190.64667)" />
    <path
       id="path3"
       d="m 0,-12.80026 v 4.25192 m 29.8883,-4.25192 v 4.25192 m 29.88831,-4.25192 v 4.25192 m 29.88831,-4.25192 v 4.25192 m 29.8883,-4.25192 v 4.25192 m 29.88831,-4.25192 v 4.25192 m 29.8883,-4.25192 v 4.25192 m 29.88831,-4.25192 v 4.25192 m 29.88831,-4.25192 v 4.25192 m 29.8883,-4.25192 v 4.25192 m 29.88831,-4.25192 v 4.25192 M 0,140.79527 v -4.25192 m 29.8883,4.25192 v -4.25192 m 29.88831,4.25192 v -4.25192 m 29.88831,4.25192 v -4.25192 m 29.8883,4.25192 v -4.25192 m 29.88831,4.25192 v -4.25192 m 29.8883,4.25192 v -4.25192 m 29.88831,4.25192 v -4.25192 m 29.88831,4.25192 v -4.25192 m 29.8883,4.25192 v -4.25192 m 29.88831,4.25192 v -4.25192"
       style="fill:none;stroke:#808080;stroke-width:0.19925;stroke-linecap:butt;stroke-linejoin:miter;stroke-miterlimit:10;stroke-dasharray:none;stroke-opacity:1"
       transform="matrix(1.3333333,0,0,-1.3333333,39.328,190.64667)" />
    <path
       id="path4"
       d="M 0,55.22922 H 4.25233 M 0,127.99501 H 4.25233 M 298.88306,55.22922 h -4.25236 m 4.25236,72.76579 h -4.25236"
       style="fill:none;stroke:#808080;stroke-width:0.19925;stroke-linecap:butt;stroke-linejoin:miter;stroke-miterlimit:10;stroke-dasharray:none;stroke-opacity:1"
       transform="matrix(1.3333333,0,0,-1.3333333,39.328,190.64667)" />
    <path
       id="path5"
       d="M 0,-12.80026 V 140.79527 H 298.88306 V -12.80026 Z"
       style="fill:none;stroke:#000000;stroke-width:0.3985;stroke-linecap:butt;stroke-linejoin:miter;stroke-miterlimit:10;stroke-dasharray:none;stroke-opacity:1"
       transform="matrix(1.3333333,0,0,-1.3333333,39.328,190.64667)" />
    <path
       id="path6"
       d="m 4.5828906,-3.1888672 c 0,-0.796875 -0.046875,-1.59375 -0.3984375,-2.3320312 -0.4570312,-0.9609375 -1.2773437,-1.1132813 -1.6875,-1.1132813 -0.5976562,0 -1.3359375,0.2578125 -1.73437497,1.1835938 -0.328125,0.6914062 -0.375,1.4648437 -0.375,2.2617187 0,0.75 0.046875,1.640625 0.4453125,2.40234376 0.43359377,0.80859375 1.16015627,1.0078125 1.65234377,1.0078125 0.5390625,0 1.2890625,-0.2109375 1.734375,-1.16015625 C 4.5360156,-1.6302734 4.5828906,-2.4037109 4.5828906,-3.1888672 Z m -2.0976562,3.18750001 c -0.3867188,0 -0.984375,-0.24609375 -1.1601563,-1.20703121 -0.1054687,-0.5976563 -0.1054687,-1.5117188 -0.1054687,-2.0976563 0,-0.6445312 0,-1.3007812 0.082031,-1.8398437 0.1875,-1.1835938 0.9257813,-1.265625 1.1835938,-1.265625 0.328125,0 0.984375,0.1757812 1.171875,1.1601562 0.09375,0.5625 0.09375,1.3125 0.09375,1.9453125 0,0.75 0,1.4179688 -0.1054688,2.0625 -0.1523437,0.93750001 -0.7148437,1.24218751 -1.160156,1.24218751 z m 0,0"
       style="fill:#000000;fill-opacity:1;fill-rule:nonzero;stroke:none"
       aria-label="0"
       transform="matrix(1.3333333,0,0,1.3333333,36.006667,220.96667)" />
    <path
       id="path7"
       d="M 1.2642266,-0.76308594 2.3189141,-1.7943359 c 1.5585937,-1.3710938 2.15625,-1.9101563 2.15625,-2.90625 0,-1.1367188 -0.9023438,-1.9335938 -2.1210938,-1.9335938 -1.125,0 -1.85156249,0.9140625 -1.85156249,1.8046875 0,0.5507813 0.4921875,0.5507813 0.52734379,0.5507813 0.1640625,0 0.515625,-0.1171875 0.515625,-0.5273438 0,-0.2578125 -0.1875,-0.515625 -0.5273438,-0.515625 -0.0820312,0 -0.10546874,0 -0.12890624,0.011719 C 1.1118828,-5.954492 1.6509453,-6.329492 2.2251641,-6.329492 c 0.9140625,0 1.3359375,0.8085938 1.3359375,1.6289063 0,0.796875 -0.4921875,1.5820312 -1.0429688,2.203125 L 0.60797656,-0.36464844 C 0.50250781,-0.25917969 0.50250781,-0.23574219 0.50250781,-0.00136719 H 4.1939141 l 0.28125,-1.73437501 H 4.2173516 c -0.046875,0.3046875 -0.1171875,0.73828126 -0.2109375,0.89062501 -0.070312,0.0820313 -0.7265625,0.0820313 -0.9492188,0.0820313 z m 0,0"
       style="fill:#000000;fill-opacity:1;fill-rule:nonzero;stroke:none"
       aria-label="2"
       transform="matrix(1.3333333,0,0,1.3333333,75.857333,220.96667)" />
    <path
       id="path8"
       d="m 2.9289609,-1.6419922 v 0.86718751 c 0,0.3515625 -0.023437,0.46875 -0.7617187,0.46875 H 1.9563047 v 0.3046875 c 0.4101562,-0.03515625 0.9375,-0.03515625 1.3476562,-0.03515625 0.421875,0 0.9492188,0 1.359375,0.03515625 v -0.3046875 H 4.4523984 c -0.7382812,0 -0.7617187,-0.1171875 -0.7617187,-0.46875 V -1.6419922 H 4.6867734 V -1.9583984 H 3.6906797 v -4.5234375 c 0,-0.1992188 0,-0.2578125 -0.1523438,-0.2578125 -0.09375,0 -0.1171875,0 -0.1992187,0.1171875 l -3.05859376,4.6640625 v 0.3164062 z m 0.058594,-0.3164062 H 0.56177344 L 2.9875547,-5.6732422 Z m 0,0"
       style="fill:#000000;fill-opacity:1;fill-rule:nonzero;stroke:none"
       aria-label="4"
       transform="matrix(1.3333333,0,0,1.3333333,115.708,220.96667)" />
    <path
       id="path9"
       d="m 1.3124453,-3.2708984 v -0.234375 c 0,-2.5195313 1.2421875,-2.8828125 1.7460938,-2.8828125 0.234375,0 0.65625,0.058594 0.8789062,0.3984375 -0.1523437,0 -0.5507812,0 -0.5507812,0.4453125 0,0.3164062 0.234375,0.4570312 0.4570312,0.4570312 0.1640625,0 0.4570313,-0.082031 0.4570313,-0.46875 0,-0.5976562 -0.4335938,-1.078125 -1.265625,-1.078125 -1.2773438,0 -2.61328129,1.2890625 -2.61328129,3.4804688 0,2.66015621 1.14843749,3.37499996 2.07421879,3.37499996 1.1132812,0 2.0507812,-0.9375 2.0507812,-2.24999996 0,-1.265625 -0.8789062,-2.2265625 -1.9921875,-2.2265625 -0.6679687,0 -1.0429687,0.5039062 -1.2421875,0.984375 z m 1.1835938,3.21093746 c -0.6210938,0 -0.9257813,-0.59765625 -0.984375,-0.75 C 1.3358828,-1.2787109 1.3358828,-2.0755859 1.3358828,-2.2513672 c 0,-0.7734375 0.3164063,-1.7695312 1.21875,-1.7695312 0.1523438,0 0.609375,0 0.9257813,0.609375 0.1757812,0.375 0.1757812,0.8789062 0.1757812,1.3710937 0,0.4804688 0,0.9726563 -0.1640625,1.33593751 -0.3046875,0.59765625 -0.7617187,0.64453125 -0.9960937,0.64453125 z m 0,0"
       style="fill:#000000;fill-opacity:1;fill-rule:nonzero;stroke:none"
       aria-label="6"
       transform="matrix(1.3333333,0,0,1.3333333,155.55867,220.96667)" />
    <path
       id="path10"
       d="m 1.6295234,-4.5482422 c -0.46875,-0.3046875 -0.5039062,-0.6445312 -0.5039062,-0.8085937 0,-0.609375 0.6445312,-1.03125 1.359375,-1.03125 0.7265625,0 1.359375,0.515625 1.359375,1.2421875 0,0.5625 -0.3867188,1.0429687 -0.984375,1.3945312 z m 1.453125,0.9375 c 0.7148438,-0.3632812 1.2070313,-0.8789062 1.2070313,-1.5351562 0,-0.9257813 -0.890625,-1.4882813 -1.7929688,-1.4882813 -0.9960937,0 -1.80468746,0.7382813 -1.80468746,1.6640625 0,0.1757813 0.0117188,0.6210938 0.43359376,1.0898438 0.1054687,0.1289062 0.4804687,0.375 0.7265625,0.5390625 -0.5742188,0.2929687 -1.42968751,0.84375 -1.42968751,1.8398437 0,1.05468751 1.00781251,1.72265626 2.06250001,1.72265626 1.125,0 2.0625,-0.83203125 2.0625,-1.89843746 0,-0.3515625 -0.1054688,-0.8085938 -0.4804688,-1.21875 -0.1875,-0.2109375 -0.3515625,-0.3164063 -0.984375,-0.7148438 z m -0.9960937,0.421875 1.21875,0.7734375 c 0.28125,0.1875 0.75,0.4921875 0.75,1.1015625 0,0.73828126 -0.75,1.25390626 -1.5585938,1.25390626 -0.8671875,0 -1.58203121,-0.62109375 -1.58203121,-1.44140626 0,-0.5859375 0.31640621,-1.21875 1.17187501,-1.6875 z m 0,0"
       style="fill:#000000;fill-opacity:1;fill-rule:nonzero;stroke:none"
       aria-label="8"
       transform="matrix(1.3333333,0,0,1.3333333,195.40933,220.96667)" />
    <path
       id="path11"
       d="m 2.9288125,-6.3763672 c 0,-0.234375 0,-0.2578125 -0.234375,-0.2578125 -0.609375,0.6328125 -1.4882813,0.6328125 -1.8046875,0.6328125 v 0.3164063 c 0.1992187,0 0.7851562,0 1.3007812,-0.2578125 v 5.15624996 c 0,0.3515625 -0.035156,0.48046875 -0.9257812,0.48046875 H 0.94834375 v 0.3046875 C 1.2999062,-0.03652344 2.155375,-0.03652344 2.5538125,-0.03652344 c 0.3984375,0 1.265625,0 1.6171875,0.03515625 v -0.3046875 H 3.8545937 c -0.9023437,0 -0.9257812,-0.1171875 -0.9257812,-0.48046875 z m 6.6357422,3.1875 c 0,-0.796875 -0.046875,-1.59375 -0.3984375,-2.3320312 -0.4570313,-0.9609375 -1.2773438,-1.1132813 -1.6875,-1.1132813 -0.5976563,0 -1.3359375,0.2578125 -1.734375,1.1835938 -0.328125,0.6914062 -0.375,1.4648437 -0.375,2.2617187 0,0.75 0.046875,1.640625 0.4453125,2.40234376 0.4335937,0.80859375 1.1601562,1.0078125 1.6523437,1.0078125 0.5390625,0 1.2890625,-0.2109375 1.734375,-1.16015625 C 9.5176797,-1.6302734 9.5645547,-2.4037109 9.5645547,-3.1888672 Z m -2.0976563,3.18750001 c -0.3867187,0 -0.984375,-0.24609375 -1.1601562,-1.20703121 -0.1054688,-0.5976563 -0.1054688,-1.5117188 -0.1054688,-2.0976563 0,-0.6445312 0,-1.3007812 0.082031,-1.8398437 0.1875,-1.1835938 0.9257812,-1.265625 1.1835937,-1.265625 0.328125,0 0.984375,0.1757812 1.171875,1.1601562 0.09375,0.5625 0.09375,1.3125 0.09375,1.9453125 0,0.75 0,1.4179688 -0.1054687,2.0625 -0.1523438,0.93750001 -0.7148438,1.24218751 -1.160156,1.24218751 z m 0,0"
       style="fill:#000000;fill-opacity:1;fill-rule:nonzero;stroke:none"
       aria-label="10"
       transform="matrix(1.3333333,0,0,1.3333333,231.93867,220.96667)" />
    <path
       id="path12"
       d="m 2.9294844,-6.3763672 c 0,-0.234375 0,-0.2578125 -0.234375,-0.2578125 -0.609375,0.6328125 -1.4882813,0.6328125 -1.80468752,0.6328125 v 0.3164063 c 0.19921872,0 0.78515622,0 1.30078122,-0.2578125 v 5.15624996 c 0,0.3515625 -0.035156,0.48046875 -0.9257812,0.48046875 H 0.94901563 v 0.3046875 C 1.3005781,-0.03652344 2.1560469,-0.03652344 2.5544844,-0.03652344 c 0.3984375,0 1.265625,0 1.6171875,0.03515625 v -0.3046875 H 3.8552656 c -0.9023437,0 -0.9257812,-0.1171875 -0.9257812,-0.48046875 z m 3.3164062,5.61328126 1.0546875,-1.03124996 c 1.5585938,-1.3710938 2.15625,-1.9101563 2.15625,-2.90625 0,-1.1367188 -0.9023437,-1.9335938 -2.1210937,-1.9335938 -1.125,0 -1.8515625,0.9140625 -1.8515625,1.8046875 0,0.5507813 0.4921875,0.5507813 0.5273437,0.5507813 0.1640625,0 0.515625,-0.1171875 0.515625,-0.5273438 0,-0.2578125 -0.1875,-0.515625 -0.5273437,-0.515625 -0.082031,0 -0.1054688,0 -0.1289063,0.011719 0.2226563,-0.6445313 0.7617188,-1.0195313 1.3359375,-1.0195313 0.9140625,0 1.3359375,0.8085938 1.3359375,1.6289063 0,0.796875 -0.4921875,1.5820312 -1.0429687,2.203125 L 5.5896406,-0.36464824 C 5.4841719,-0.25917949 5.4841719,-0.23574199 5.4841719,-0.00136699 H 9.1755781 L 9.4568281,-1.735742 H 9.1990156 c -0.046875,0.3046875 -0.1171875,0.73828126 -0.2109375,0.89062501 -0.070312,0.0820313 -0.7265625,0.0820313 -0.9492187,0.0820313 z m 0,0"
       style="fill:#000000;fill-opacity:1;fill-rule:nonzero;stroke:none"
       aria-label="12"
       transform="matrix(1.3333333,0,0,1.3333333,271.78933,220.96667)" />
    <path
       id="path13"
       d="m 2.9301563,-6.3763672 c 0,-0.234375 0,-0.2578125 -0.234375,-0.2578125 -0.609375,0.6328125 -1.4882813,0.6328125 -1.80468755,0.6328125 v 0.3164063 c 0.19921875,0 0.78515625,0 1.30078125,-0.2578125 v 5.15624996 c 0,0.3515625 -0.035156,0.48046875 -0.9257812,0.48046875 H 0.9496875 v 0.3046875 c 0.3515625,-0.03515625 1.2070313,-0.03515625 1.6054688,-0.03515625 0.3984375,0 1.265625,0 1.6171875,0.03515625 v -0.3046875 H 3.8559375 c -0.9023437,0 -0.9257812,-0.1171875 -0.9257812,-0.48046875 z m 4.9804687,4.734375 v 0.86718751 c 0,0.3515625 -0.023437,0.46875 -0.7617187,0.46875 H 6.9379688 v 0.3046875 c 0.4101562,-0.03515625 0.9375,-0.03515625 1.3476562,-0.03515625 0.421875,0 0.9492188,0 1.359375,0.03515625 v -0.3046875 H 9.4340625 c -0.7382812,0 -0.7617187,-0.1171875 -0.7617187,-0.46875 V -1.6419922 H 9.6684375 V -1.9583984 H 8.6723438 v -4.5234375 c 0,-0.1992188 0,-0.2578125 -0.1523438,-0.2578125 -0.09375,0 -0.1171875,0 -0.1992187,0.1171875 l -3.0585938,4.6640625 v 0.3164062 z M 7.969219,-1.9583984 H 5.5434375 l 2.4257813,-3.7148438 z m 0,0"
       style="fill:#000000;fill-opacity:1;fill-rule:nonzero;stroke:none"
       aria-label="14"
       transform="matrix(1.3333333,0,0,1.3333333,311.64,220.96667)" />
    <path
       id="path14"
       d="m 2.9308281,-6.3763672 c 0,-0.234375 0,-0.2578125 -0.234375,-0.2578125 -0.609375,0.6328125 -1.4882812,0.6328125 -1.80468747,0.6328125 v 0.3164063 c 0.19921877,0 0.78515627,0 1.30078127,-0.2578125 v 5.15624996 c 0,0.3515625 -0.035156,0.48046875 -0.9257813,0.48046875 H 0.95035938 v 0.3046875 C 1.3019219,-0.03652344 2.1573906,-0.03652344 2.5558281,-0.03652344 c 0.3984375,0 1.265625,0 1.6171875,0.03515625 v -0.3046875 H 3.8566094 c -0.9023438,0 -0.9257813,-0.1171875 -0.9257813,-0.48046875 z m 3.3632813,3.1054688 v -0.234375 c 0,-2.5195313 1.2421875,-2.8828125 1.7460937,-2.8828125 0.234375,0 0.65625,0.058594 0.8789063,0.3984375 -0.1523438,0 -0.5507813,0 -0.5507813,0.4453125 0,0.3164062 0.234375,0.4570312 0.4570313,0.4570312 0.1640625,0 0.4570312,-0.082031 0.4570312,-0.46875 0,-0.5976562 -0.4335937,-1.078125 -1.265625,-1.078125 -1.2773437,0 -2.6132812,1.2890625 -2.6132812,3.4804688 0,2.66015621 1.1484375,3.37499996 2.0742187,3.37499996 1.1132813,0 2.0507813,-0.9375 2.0507813,-2.24999996 0,-1.265625 -0.8789063,-2.2265625 -1.9921875,-2.2265625 -0.6679688,0 -1.0429688,0.5039062 -1.2421875,0.984375 z m 1.1835937,3.21093746 c -0.6210937,0 -0.9257812,-0.59765625 -0.984375,-0.75 C 6.3175469,-1.2787109 6.3175469,-2.0755859 6.3175469,-2.2513672 c 0,-0.7734375 0.3164062,-1.7695312 1.21875,-1.7695312 0.1523437,0 0.609375,0 0.9257812,0.609375 0.1757813,0.375 0.1757813,0.8789062 0.1757813,1.3710937 0,0.4804688 0,0.9726563 -0.1640625,1.33593751 -0.3046875,0.59765625 -0.7617188,0.64453125 -0.9960938,0.64453125 z m 0,0"
       style="fill:#000000;fill-opacity:1;fill-rule:nonzero;stroke:none"
       aria-label="16"
       transform="matrix(1.3333333,0,0,1.3333333,351.49067,220.96667)" />
    <path
       id="path15"
       d="m 2.9285703,-6.3763672 c 0,-0.234375 0,-0.2578125 -0.234375,-0.2578125 -0.609375,0.6328125 -1.4882812,0.6328125 -1.80468749,0.6328125 v 0.3164063 c 0.19921879,0 0.78515629,0 1.30078129,-0.2578125 v 5.15624996 c 0,0.3515625 -0.035156,0.48046875 -0.9257813,0.48046875 H 0.94810156 v 0.3046875 C 1.2996641,-0.03652344 2.1551328,-0.03652344 2.5535703,-0.03652344 c 0.3984375,0 1.265625,0 1.6171875,0.03515625 v -0.3046875 H 3.8543516 c -0.9023438,0 -0.9257813,-0.1171875 -0.9257813,-0.48046875 z m 3.6826172,1.828125 c -0.46875,-0.3046875 -0.5039062,-0.6445312 -0.5039062,-0.8085937 0,-0.609375 0.6445312,-1.03125 1.359375,-1.03125 0.7265625,0 1.359375,0.515625 1.359375,1.2421875 0,0.5625 -0.3867188,1.0429687 -0.984375,1.3945312 z m 1.453125,0.9375 c 0.7148438,-0.3632812 1.2070313,-0.8789062 1.2070313,-1.5351562 0,-0.9257813 -0.890625,-1.4882813 -1.7929688,-1.4882813 -0.9960937,0 -1.8046875,0.7382813 -1.8046875,1.6640625 0,0.1757813 0.011719,0.6210938 0.4335938,1.0898438 0.1054687,0.1289062 0.4804687,0.375 0.7265625,0.5390625 -0.5742188,0.2929687 -1.4296875,0.84375 -1.4296875,1.8398437 0,1.05468751 1.0078125,1.72265626 2.0625,1.72265626 1.125,0 2.0625,-0.83203125 2.0625,-1.89843746 0,-0.3515625 -0.1054688,-0.8085938 -0.4804688,-1.21875 -0.1875,-0.2109375 -0.3515625,-0.3164063 -0.984375,-0.7148438 z m -0.9960937,0.421875 1.21875,0.7734375 c 0.28125,0.1875 0.75,0.4921875 0.75,1.1015625 0,0.73828126 -0.75,1.25390626 -1.5585938,1.25390626 -0.8671875,0 -1.5820312,-0.62109375 -1.5820312,-1.44140626 0,-0.5859375 0.3164062,-1.21875 1.171875,-1.6875 z m 0,0"
       style="fill:#000000;fill-opacity:1;fill-rule:nonzero;stroke:none"
       aria-label="18"
       transform="matrix(1.3333333,0,0,1.3333333,391.34133,220.96667)" />
    <path
       id="path16"
       d="M 1.2651797,-0.76308594 2.3198672,-1.7943359 c 1.5585937,-1.3710938 2.15625,-1.9101563 2.15625,-2.90625 0,-1.1367188 -0.9023438,-1.9335938 -2.1210938,-1.9335938 -1.125,0 -1.85156246,0.9140625 -1.85156246,1.8046875 0,0.5507813 0.4921875,0.5507813 0.52734376,0.5507813 0.1640625,0 0.515625,-0.1171875 0.515625,-0.5273438 0,-0.2578125 -0.1875,-0.515625 -0.5273438,-0.515625 -0.0820312,0 -0.10546871,0 -0.12890621,0.011719 C 1.1128359,-5.954492 1.6518984,-6.329492 2.2261172,-6.329492 c 0.9140625,0 1.3359375,0.8085938 1.3359375,1.6289063 0,0.796875 -0.4921875,1.5820312 -1.0429688,2.203125 L 0.60892969,-0.36464844 C 0.50346094,-0.25917969 0.50346094,-0.23574219 0.50346094,-0.00136719 H 4.1948672 l 0.28125,-1.73437501 H 4.2183047 c -0.046875,0.3046875 -0.1171875,0.73828126 -0.2109375,0.89062501 -0.070312,0.0820313 -0.7265625,0.0820313 -0.9492188,0.0820313 z m 8.296875,-2.42578126 c 0,-0.796875 -0.046875,-1.59375 -0.3984375,-2.3320312 -0.4570313,-0.9609375 -1.2773438,-1.1132813 -1.6875,-1.1132813 -0.5976563,0 -1.3359375,0.2578125 -1.734375,1.1835938 -0.328125,0.6914062 -0.375,1.4648437 -0.375,2.2617187 0,0.75 0.046875,1.640625 0.4453125,2.40234376 0.4335937,0.80859375 1.1601562,1.0078125 1.6523437,1.0078125 0.5390625,0 1.2890625,-0.2109375 1.734375,-1.16015625 C 9.5151797,-1.6302734 9.5620547,-2.4037109 9.5620547,-3.1888672 Z m -2.0976563,3.18750001 c -0.3867187,0 -0.984375,-0.24609375 -1.1601562,-1.20703121 -0.1054688,-0.5976563 -0.1054688,-1.5117188 -0.1054688,-2.0976563 0,-0.6445312 0,-1.3007812 0.082031,-1.8398437 0.1875,-1.1835938 0.9257812,-1.265625 1.1835937,-1.265625 0.328125,0 0.984375,0.1757812 1.171875,1.1601562 0.09375,0.5625 0.09375,1.3125 0.09375,1.9453125 0,0.75 0,1.4179688 -0.1054687,2.0625 -0.1523438,0.93750001 -0.7148438,1.24218751 -1.160156,1.24218751 z m 0,0"
       style="fill:#000000;fill-opacity:1;fill-rule:nonzero;stroke:none"
       aria-label="20"
       transform="matrix(1.3333333,0,0,1.3333333,431.192,220.96667)" />
    <path
       id="path17"
       d="m 4.5811719,-3.1877031 c 0,-0.796875 -0.046875,-1.59375 -0.3984375,-2.3320313 -0.4570313,-0.9609375 -1.2773438,-1.1132812 -1.6875,-1.1132812 -0.5976563,0 -1.3359375,0.2578125 -1.73437502,1.1835937 -0.328125,0.6914063 -0.375,1.4648438 -0.375,2.2617188 0,0.75 0.046875,1.640625 0.4453125,2.40234373 0.43359372,0.80859375 1.16015622,1.0078125 1.65234372,1.0078125 0.5390625,0 1.2890625,-0.2109375 1.734375,-1.16015625 C 4.5342969,-1.6291094 4.5811719,-2.4025469 4.5811719,-3.1877031 Z M 2.4835156,-2.03125e-4 c -0.3867187,0 -0.984375,-0.246093745 -1.1601562,-1.207031275 -0.1054688,-0.5976562 -0.1054688,-1.5117187 -0.1054688,-2.0976562 0,-0.6445313 0,-1.3007813 0.082031,-1.8398438 0.1875,-1.1835937 0.9257812,-1.265625 1.1835937,-1.265625 0.328125,0 0.984375,0.1757813 1.171875,1.1601563 0.09375,0.5625 0.09375,1.3125 0.09375,1.9453125 0,0.75 0,1.4179687 -0.1054687,2.0625 -0.1523438,0.93749998 -0.7148438,1.242187475 -1.160156,1.242187475 z m 0,0"
       style="fill:#000000;fill-opacity:1;fill-rule:nonzero;stroke:none"
       aria-label="0"
       transform="matrix(1.3333333,0,0,1.3333333,27.993333,121.28933)" />
    <path
       id="path18"
       d="m 2.9288281,-6.3748516 c 0,-0.234375 0,-0.2578125 -0.234375,-0.2578125 -0.609375,0.6328125 -1.4882812,0.6328125 -1.80468747,0.6328125 v 0.3164063 c 0.19921877,0 0.78515627,0 1.30078127,-0.2578125 v 5.15624999 c 0,0.3515625 -0.035156,0.48046875 -0.9257813,0.48046875 H 0.94835938 V 1.484375e-4 C 1.2999219,-0.03500781 2.1553906,-0.03500781 2.5538281,-0.03500781 c 0.3984375,0 1.265625,0 1.6171875,0.0351562475 V -0.30453906 H 3.8546094 c -0.9023438,0 -0.9257813,-0.1171875 -0.9257813,-0.48046875 z m 0,0"
       style="fill:#000000;fill-opacity:1;fill-rule:nonzero;stroke:none"
       aria-label="1"
       transform="matrix(1.3333333,0,0,1.3333333,27.993333,24.269333)" />
    <path
       id="path19"
       d="M 14.94415,127.99551 29.8883,91.61249 44.83246,79.46054 59.77661,73.42096 74.72076,69.78265 89.66492,67.38138 104.60907,65.635 l 14.94415,-1.3098 14.94416,-1.01873 14.94415,-0.80043 14.94415,-0.65489 14.94415,-0.56029 14.94416,-0.46571 14.94415,-0.40021 14.94416,-0.34201 14.94415,-0.30562 14.94415,-0.26924 14.94415,-0.23285 14.94415,-0.21829 14.94416,-0.18919"
       style="fill:none;stroke:#0000ff;stroke-width:0.3985;stroke-linecap:butt;stroke-linejoin:miter;stroke-miterlimit:10;stroke-dasharray:none;stroke-opacity:1"
       transform="matrix(1.3333333,0,0,-1.3333333,39.328,190.64667)"
       clip-path="url(#clipPath20)" />
    <path
       id="path21"
       d="M 14.94415,55.22943 29.8883,121.3738 44.83246,65.48946 59.77661,0.14552 74.72076,124.93933 89.66492,34.9277 104.60907,7.4949 119.55322,127.19508 134.49738,25.24983 149.44153,15.6447 164.38568,127.92274 179.32983,16.22682 194.27399,25.83195 209.21814,121.44656 224.1623,45.62433 239.10645,0 254.0506,124.79381 268.99475,34.9277 283.9389,7.56766 298.88306,127.26785"
       style="fill:none;stroke:#ff0000;stroke-width:0.3985;stroke-linecap:butt;stroke-linejoin:miter;stroke-miterlimit:10;stroke-dasharray:none;stroke-opacity:1"
       transform="matrix(1.3333333,0,0,-1.3333333,39.328,190.64667)"
       clip-path="url(#clipPath22)" />
    <path
       id="path23"
       d="m 16.9367,127.99551 c 0,1.10047 -0.89208,1.99256 -1.99255,1.99256 -1.10048,0 -1.99255,-0.89209 -1.99255,-1.99256 0,-1.10048 0.89207,-1.99255 1.99255,-1.99255 1.10047,0 1.99255,0.89207 1.99255,1.99255 z"
       style="fill:#0000ff;fill-opacity:1;fill-rule:nonzero;stroke:#0000ff;stroke-width:0.3985;stroke-linecap:butt;stroke-linejoin:miter;stroke-miterlimit:10;stroke-dasharray:none;stroke-opacity:1"
       transform="matrix(1.3333333,0,0,-1.3333333,39.328,190.64667)" />
    <path
       id="path24"
       d="m 31.88086,91.61249 c 0,1.10046 -0.89209,1.99255 -1.99256,1.99255 -1.10047,0 -1.99255,-0.89209 -1.99255,-1.99255 0,-1.10048 0.89208,-1.99256 1.99255,-1.99256 1.10047,0 1.99256,0.89208 1.99256,1.99256 z"
       style="fill:#0000ff;fill-opacity:1;fill-rule:nonzero;stroke:#0000ff;stroke-width:0.3985;stroke-linecap:butt;stroke-linejoin:miter;stroke-miterlimit:10;stroke-dasharray:none;stroke-opacity:1"
       transform="matrix(1.3333333,0,0,-1.3333333,39.328,190.64667)" />
    <path
       id="path25"
       d="m 46.82501,79.46054 c 0,1.10046 -0.89209,1.99256 -1.99255,1.99256 -1.10048,0 -1.99256,-0.8921 -1.99256,-1.99256 0,-1.10048 0.89208,-1.99255 1.99256,-1.99255 1.10046,0 1.99255,0.89207 1.99255,1.99255 z"
       style="fill:#0000ff;fill-opacity:1;fill-rule:nonzero;stroke:#0000ff;stroke-width:0.3985;stroke-linecap:butt;stroke-linejoin:miter;stroke-miterlimit:10;stroke-dasharray:none;stroke-opacity:1"
       transform="matrix(1.3333333,0,0,-1.3333333,39.328,190.64667)" />
    <path
       id="path26"
       d="m 61.76917,73.42096 c 0,1.10046 -0.89209,1.99255 -1.99256,1.99255 -1.10048,0 -1.99255,-0.89209 -1.99255,-1.99255 0,-1.10048 0.89207,-1.99256 1.99255,-1.99256 1.10047,0 1.99256,0.89208 1.99256,1.99256 z"
       style="fill:#0000ff;fill-opacity:1;fill-rule:nonzero;stroke:#0000ff;stroke-width:0.3985;stroke-linecap:butt;stroke-linejoin:miter;stroke-miterlimit:10;stroke-dasharray:none;stroke-opacity:1"
       transform="matrix(1.3333333,0,0,-1.3333333,39.328,190.64667)" />
    <path
       id="path27"
       d="m 76.71332,69.78265 c 0,1.10047 -0.89209,1.99255 -1.99256,1.99255 -1.10047,0 -1.99255,-0.89208 -1.99255,-1.99255 0,-1.10048 0.89208,-1.99255 1.99255,-1.99255 1.10047,0 1.99256,0.89207 1.99256,1.99255 z"
       style="fill:#0000ff;fill-opacity:1;fill-rule:nonzero;stroke:#0000ff;stroke-width:0.3985;stroke-linecap:butt;stroke-linejoin:miter;stroke-miterlimit:10;stroke-dasharray:none;stroke-opacity:1"
       transform="matrix(1.3333333,0,0,-1.3333333,39.328,190.64667)" />
    <path
       id="path28"
       d="m 91.65747,67.38138 c 0,1.10046 -0.89209,1.99255 -1.99255,1.99255 -1.10048,0 -1.99256,-0.89209 -1.99256,-1.99255 0,-1.10047 0.89208,-1.99256 1.99256,-1.99256 1.10046,0 1.99255,0.89209 1.99255,1.99256 z"
       style="fill:#0000ff;fill-opacity:1;fill-rule:nonzero;stroke:#0000ff;stroke-width:0.3985;stroke-linecap:butt;stroke-linejoin:miter;stroke-miterlimit:10;stroke-dasharray:none;stroke-opacity:1"
       transform="matrix(1.3333333,0,0,-1.3333333,39.328,190.64667)" />
    <path
       id="path29"
       d="m 106.60162,65.635 c 0,1.10046 -0.89209,1.99255 -1.99255,1.99255 -1.10048,0 -1.99255,-0.89209 -1.99255,-1.99255 0,-1.10048 0.89207,-1.99256 1.99255,-1.99256 1.10046,0 1.99255,0.89208 1.99255,1.99256 z"
       style="fill:#0000ff;fill-opacity:1;fill-rule:nonzero;stroke:#0000ff;stroke-width:0.3985;stroke-linecap:butt;stroke-linejoin:miter;stroke-miterlimit:10;stroke-dasharray:none;stroke-opacity:1"
       transform="matrix(1.3333333,0,0,-1.3333333,39.328,190.64667)" />
    <path
       id="path30"
       d="m 121.54578,64.3252 c 0,1.10047 -0.89209,1.99255 -1.99256,1.99255 -1.10048,0 -1.99255,-0.89208 -1.99255,-1.99255 0,-1.10047 0.89207,-1.99256 1.99255,-1.99256 1.10047,0 1.99256,0.89209 1.99256,1.99256 z"
       style="fill:#0000ff;fill-opacity:1;fill-rule:nonzero;stroke:#0000ff;stroke-width:0.3985;stroke-linecap:butt;stroke-linejoin:miter;stroke-miterlimit:10;stroke-dasharray:none;stroke-opacity:1"
       transform="matrix(1.3333333,0,0,-1.3333333,39.328,190.64667)" />
    <path
       id="path31"
       d="m 136.48993,63.30647 c 0,1.10047 -0.89209,1.99256 -1.99255,1.99256 -1.10048,0 -1.99256,-0.89209 -1.99256,-1.99256 0,-1.10046 0.89208,-1.99255 1.99256,-1.99255 1.10046,0 1.99255,0.89209 1.99255,1.99255 z"
       style="fill:#0000ff;fill-opacity:1;fill-rule:nonzero;stroke:#0000ff;stroke-width:0.3985;stroke-linecap:butt;stroke-linejoin:miter;stroke-miterlimit:10;stroke-dasharray:none;stroke-opacity:1"
       transform="matrix(1.3333333,0,0,-1.3333333,39.328,190.64667)" />
    <path
       id="path32"
       d="m 151.43408,62.50604 c 0,1.10048 -0.89209,1.99256 -1.99255,1.99256 -1.10048,0 -1.99256,-0.89208 -1.99256,-1.99256 0,-1.10046 0.89208,-1.99255 1.99256,-1.99255 1.10046,0 1.99255,0.89209 1.99255,1.99255 z"
       style="fill:#0000ff;fill-opacity:1;fill-rule:nonzero;stroke:#0000ff;stroke-width:0.3985;stroke-linecap:butt;stroke-linejoin:miter;stroke-miterlimit:10;stroke-dasharray:none;stroke-opacity:1"
       transform="matrix(1.3333333,0,0,-1.3333333,39.328,190.64667)" />
    <path
       id="path33"
       d="m 166.37823,61.85115 c 0,1.10048 -0.89208,1.99255 -1.99255,1.99255 -1.10048,0 -1.99255,-0.89207 -1.99255,-1.99255 0,-1.10046 0.89207,-1.99255 1.99255,-1.99255 1.10047,0 1.99255,0.89209 1.99255,1.99255 z"
       style="fill:#0000ff;fill-opacity:1;fill-rule:nonzero;stroke:#0000ff;stroke-width:0.3985;stroke-linecap:butt;stroke-linejoin:miter;stroke-miterlimit:10;stroke-dasharray:none;stroke-opacity:1"
       transform="matrix(1.3333333,0,0,-1.3333333,39.328,190.64667)" />
    <path
       id="path34"
       d="m 181.32239,61.29086 c 0,1.10047 -0.89209,1.99256 -1.99256,1.99256 -1.10048,0 -1.99255,-0.89209 -1.99255,-1.99256 0,-1.10048 0.89207,-1.99255 1.99255,-1.99255 1.10047,0 1.99256,0.89207 1.99256,1.99255 z"
       style="fill:#0000ff;fill-opacity:1;fill-rule:nonzero;stroke:#0000ff;stroke-width:0.3985;stroke-linecap:butt;stroke-linejoin:miter;stroke-miterlimit:10;stroke-dasharray:none;stroke-opacity:1"
       transform="matrix(1.3333333,0,0,-1.3333333,39.328,190.64667)" />
    <path
       id="path35"
       d="m 196.26654,60.82515 c 0,1.10046 -0.89209,1.99255 -1.99255,1.99255 -1.10048,0 -1.99256,-0.89209 -1.99256,-1.99255 0,-1.10048 0.89208,-1.99255 1.99256,-1.99255 1.10046,0 1.99255,0.89207 1.99255,1.99255 z"
       style="fill:#0000ff;fill-opacity:1;fill-rule:nonzero;stroke:#0000ff;stroke-width:0.3985;stroke-linecap:butt;stroke-linejoin:miter;stroke-miterlimit:10;stroke-dasharray:none;stroke-opacity:1"
       transform="matrix(1.3333333,0,0,-1.3333333,39.328,190.64667)" />
    <path
       id="path36"
       d="m 211.2107,60.42494 c 0,1.10046 -0.8921,1.99256 -1.99256,1.99256 -1.10048,0 -1.99255,-0.8921 -1.99255,-1.99256 0,-1.10048 0.89207,-1.99255 1.99255,-1.99255 1.10046,0 1.99256,0.89207 1.99256,1.99255 z"
       style="fill:#0000ff;fill-opacity:1;fill-rule:nonzero;stroke:#0000ff;stroke-width:0.3985;stroke-linecap:butt;stroke-linejoin:miter;stroke-miterlimit:10;stroke-dasharray:none;stroke-opacity:1"
       transform="matrix(1.3333333,0,0,-1.3333333,39.328,190.64667)" />
    <path
       id="path37"
       d="m 226.15485,60.08293 c 0,1.10048 -0.89209,1.99256 -1.99255,1.99256 -1.10049,0 -1.99256,-0.89208 -1.99256,-1.99256 0,-1.10046 0.89207,-1.99255 1.99256,-1.99255 1.10046,0 1.99255,0.89209 1.99255,1.99255 z"
       style="fill:#0000ff;fill-opacity:1;fill-rule:nonzero;stroke:#0000ff;stroke-width:0.3985;stroke-linecap:butt;stroke-linejoin:miter;stroke-miterlimit:10;stroke-dasharray:none;stroke-opacity:1"
       transform="matrix(1.3333333,0,0,-1.3333333,39.328,190.64667)" />
    <path
       id="path38"
       d="m 241.099,59.77731 c 0,1.10048 -0.89209,1.99256 -1.99255,1.99256 -1.10048,0 -1.99256,-0.89208 -1.99256,-1.99256 0,-1.10046 0.89208,-1.99255 1.99256,-1.99255 1.10046,0 1.99255,0.89209 1.99255,1.99255 z"
       style="fill:#0000ff;fill-opacity:1;fill-rule:nonzero;stroke:#0000ff;stroke-width:0.3985;stroke-linecap:butt;stroke-linejoin:miter;stroke-miterlimit:10;stroke-dasharray:none;stroke-opacity:1"
       transform="matrix(1.3333333,0,0,-1.3333333,39.328,190.64667)" />
    <path
       id="path39"
       d="m 256.04315,59.50807 c 0,1.10048 -0.89209,1.99256 -1.99255,1.99256 -1.10048,0 -1.99256,-0.89208 -1.99256,-1.99256 0,-1.10046 0.89208,-1.99255 1.99256,-1.99255 1.10046,0 1.99255,0.89209 1.99255,1.99255 z"
       style="fill:#0000ff;fill-opacity:1;fill-rule:nonzero;stroke:#0000ff;stroke-width:0.3985;stroke-linecap:butt;stroke-linejoin:miter;stroke-miterlimit:10;stroke-dasharray:none;stroke-opacity:1"
       transform="matrix(1.3333333,0,0,-1.3333333,39.328,190.64667)" />
    <path
       id="path40"
       d="m 270.9873,59.27522 c 0,1.10048 -0.89209,1.99256 -1.99255,1.99256 -1.10048,0 -1.99255,-0.89208 -1.99255,-1.99256 0,-1.10046 0.89207,-1.99255 1.99255,-1.99255 1.10046,0 1.99255,0.89209 1.99255,1.99255 z"
       style="fill:#0000ff;fill-opacity:1;fill-rule:nonzero;stroke:#0000ff;stroke-width:0.3985;stroke-linecap:butt;stroke-linejoin:miter;stroke-miterlimit:10;stroke-dasharray:none;stroke-opacity:1"
       transform="matrix(1.3333333,0,0,-1.3333333,39.328,190.64667)" />
    <path
       id="path41"
       d="m 285.93146,59.05693 c 0,1.10047 -0.89209,1.99255 -1.99256,1.99255 -1.10048,0 -1.99255,-0.89208 -1.99255,-1.99255 0,-1.10048 0.89207,-1.99255 1.99255,-1.99255 1.10047,0 1.99256,0.89207 1.99256,1.99255 z"
       style="fill:#0000ff;fill-opacity:1;fill-rule:nonzero;stroke:#0000ff;stroke-width:0.3985;stroke-linecap:butt;stroke-linejoin:miter;stroke-miterlimit:10;stroke-dasharray:none;stroke-opacity:1"
       transform="matrix(1.3333333,0,0,-1.3333333,39.328,190.64667)" />
    <path
       id="path42"
       d="m 300.87561,58.86774 c 0,1.10048 -0.89209,1.99255 -1.99255,1.99255 -1.10048,0 -1.99256,-0.89207 -1.99256,-1.99255 0,-1.10047 0.89208,-1.99256 1.99256,-1.99256 1.10046,0 1.99255,0.89209 1.99255,1.99256 z"
       style="fill:#0000ff;fill-opacity:1;fill-rule:nonzero;stroke:#0000ff;stroke-width:0.3985;stroke-linecap:butt;stroke-linejoin:miter;stroke-miterlimit:10;stroke-dasharray:none;stroke-opacity:1"
       transform="matrix(1.3333333,0,0,-1.3333333,39.328,190.64667)" />
    <path
       id="path43"
       d="m 16.9367,55.22943 c 0,1.10048 -0.89208,1.99255 -1.99255,1.99255 -1.10048,0 -1.99255,-0.89207 -1.99255,-1.99255 0,-1.10046 0.89207,-1.99255 1.99255,-1.99255 1.10047,0 1.99255,0.89209 1.99255,1.99255 z"
       style="fill:#ff0000;fill-opacity:1;fill-rule:nonzero;stroke:#ff0000;stroke-width:0.3985;stroke-linecap:butt;stroke-linejoin:miter;stroke-miterlimit:10;stroke-dasharray:none;stroke-opacity:1"
       transform="matrix(1.3333333,0,0,-1.3333333,39.328,190.64667)" />
    <path
       id="path44"
       d="m 31.88086,121.3738 c 0,1.10046 -0.89209,1.99255 -1.99256,1.99255 -1.10047,0 -1.99255,-0.89209 -1.99255,-1.99255 0,-1.10048 0.89208,-1.99256 1.99255,-1.99256 1.10047,0 1.99256,0.89208 1.99256,1.99256 z"
       style="fill:#ff0000;fill-opacity:1;fill-rule:nonzero;stroke:#ff0000;stroke-width:0.3985;stroke-linecap:butt;stroke-linejoin:miter;stroke-miterlimit:10;stroke-dasharray:none;stroke-opacity:1"
       transform="matrix(1.3333333,0,0,-1.3333333,39.328,190.64667)" />
    <path
       id="path45"
       d="m 46.82501,65.48946 c 0,1.10048 -0.89209,1.99255 -1.99255,1.99255 -1.10048,0 -1.99256,-0.89207 -1.99256,-1.99255 0,-1.10047 0.89208,-1.99256 1.99256,-1.99256 1.10046,0 1.99255,0.89209 1.99255,1.99256 z"
       style="fill:#ff0000;fill-opacity:1;fill-rule:nonzero;stroke:#ff0000;stroke-width:0.3985;stroke-linecap:butt;stroke-linejoin:miter;stroke-miterlimit:10;stroke-dasharray:none;stroke-opacity:1"
       transform="matrix(1.3333333,0,0,-1.3333333,39.328,190.64667)" />
    <path
       id="path46"
       d="m 61.76917,0.14552 c 0,1.10047 -0.89209,1.99256 -1.99256,1.99256 -1.10048,0 -1.99255,-0.89209 -1.99255,-1.99256 0,-1.10046 0.89207,-1.99254 1.99255,-1.99254 1.10047,0 1.99256,0.89208 1.99256,1.99254 z"
       style="fill:#ff0000;fill-opacity:1;fill-rule:nonzero;stroke:#ff0000;stroke-width:0.3985;stroke-linecap:butt;stroke-linejoin:miter;stroke-miterlimit:10;stroke-dasharray:none;stroke-opacity:1"
       transform="matrix(1.3333333,0,0,-1.3333333,39.328,190.64667)" />
    <path
       id="path47"
       d="m 76.71332,124.93933 c 0,1.10048 -0.89209,1.99255 -1.99256,1.99255 -1.10047,0 -1.99255,-0.89207 -1.99255,-1.99255 0,-1.10046 0.89208,-1.99255 1.99255,-1.99255 1.10047,0 1.99256,0.89209 1.99256,1.99255 z"
       style="fill:#ff0000;fill-opacity:1;fill-rule:nonzero;stroke:#ff0000;stroke-width:0.3985;stroke-linecap:butt;stroke-linejoin:miter;stroke-miterlimit:10;stroke-dasharray:none;stroke-opacity:1"
       transform="matrix(1.3333333,0,0,-1.3333333,39.328,190.64667)" />
    <path
       id="path48"
       d="m 91.65747,34.9277 c 0,1.10048 -0.89209,1.99256 -1.99255,1.99256 -1.10048,0 -1.99256,-0.89208 -1.99256,-1.99256 0,-1.10046 0.89208,-1.99255 1.99256,-1.99255 1.10046,0 1.99255,0.89209 1.99255,1.99255 z"
       style="fill:#ff0000;fill-opacity:1;fill-rule:nonzero;stroke:#ff0000;stroke-width:0.3985;stroke-linecap:butt;stroke-linejoin:miter;stroke-miterlimit:10;stroke-dasharray:none;stroke-opacity:1"
       transform="matrix(1.3333333,0,0,-1.3333333,39.328,190.64667)" />
    <path
       id="path49"
       d="m 106.60162,7.4949 c 0,1.10047 -0.89209,1.99256 -1.99255,1.99256 -1.10048,0 -1.99255,-0.89209 -1.99255,-1.99256 0,-1.10048 0.89207,-1.99255 1.99255,-1.99255 1.10046,0 1.99255,0.89207 1.99255,1.99255 z"
       style="fill:#ff0000;fill-opacity:1;fill-rule:nonzero;stroke:#ff0000;stroke-width:0.3985;stroke-linecap:butt;stroke-linejoin:miter;stroke-miterlimit:10;stroke-dasharray:none;stroke-opacity:1"
       transform="matrix(1.3333333,0,0,-1.3333333,39.328,190.64667)" />
    <path
       id="path50"
       d="m 121.54578,127.19508 c 0,1.10047 -0.89209,1.99256 -1.99256,1.99256 -1.10048,0 -1.99255,-0.89209 -1.99255,-1.99256 0,-1.10048 0.89207,-1.99255 1.99255,-1.99255 1.10047,0 1.99256,0.89207 1.99256,1.99255 z"
       style="fill:#ff0000;fill-opacity:1;fill-rule:nonzero;stroke:#ff0000;stroke-width:0.3985;stroke-linecap:butt;stroke-linejoin:miter;stroke-miterlimit:10;stroke-dasharray:none;stroke-opacity:1"
       transform="matrix(1.3333333,0,0,-1.3333333,39.328,190.64667)" />
    <path
       id="path51"
       d="m 136.48993,25.24983 c 0,1.10047 -0.89209,1.99256 -1.99255,1.99256 -1.10048,0 -1.99256,-0.89209 -1.99256,-1.99256 0,-1.10048 0.89208,-1.99255 1.99256,-1.99255 1.10046,0 1.99255,0.89207 1.99255,1.99255 z"
       style="fill:#ff0000;fill-opacity:1;fill-rule:nonzero;stroke:#ff0000;stroke-width:0.3985;stroke-linecap:butt;stroke-linejoin:miter;stroke-miterlimit:10;stroke-dasharray:none;stroke-opacity:1"
       transform="matrix(1.3333333,0,0,-1.3333333,39.328,190.64667)" />
    <path
       id="path52"
       d="m 151.43408,15.6447 c 0,1.10046 -0.89209,1.99255 -1.99255,1.99255 -1.10048,0 -1.99256,-0.89209 -1.99256,-1.99255 0,-1.10048 0.89208,-1.99255 1.99256,-1.99255 1.10046,0 1.99255,0.89207 1.99255,1.99255 z"
       style="fill:#ff0000;fill-opacity:1;fill-rule:nonzero;stroke:#ff0000;stroke-width:0.3985;stroke-linecap:butt;stroke-linejoin:miter;stroke-miterlimit:10;stroke-dasharray:none;stroke-opacity:1"
       transform="matrix(1.3333333,0,0,-1.3333333,39.328,190.64667)" />
    <path
       id="path53"
       d="m 166.37823,127.92274 c 0,1.10047 -0.89208,1.99256 -1.99255,1.99256 -1.10048,0 -1.99255,-0.89209 -1.99255,-1.99256 0,-1.10047 0.89207,-1.99255 1.99255,-1.99255 1.10047,0 1.99255,0.89208 1.99255,1.99255 z"
       style="fill:#ff0000;fill-opacity:1;fill-rule:nonzero;stroke:#ff0000;stroke-width:0.3985;stroke-linecap:butt;stroke-linejoin:miter;stroke-miterlimit:10;stroke-dasharray:none;stroke-opacity:1"
       transform="matrix(1.3333333,0,0,-1.3333333,39.328,190.64667)" />
    <path
       id="path54"
       d="m 181.32239,16.22682 c 0,1.10048 -0.89209,1.99256 -1.99256,1.99256 -1.10048,0 -1.99255,-0.89208 -1.99255,-1.99256 0,-1.10046 0.89207,-1.99255 1.99255,-1.99255 1.10047,0 1.99256,0.89209 1.99256,1.99255 z"
       style="fill:#ff0000;fill-opacity:1;fill-rule:nonzero;stroke:#ff0000;stroke-width:0.3985;stroke-linecap:butt;stroke-linejoin:miter;stroke-miterlimit:10;stroke-dasharray:none;stroke-opacity:1"
       transform="matrix(1.3333333,0,0,-1.3333333,39.328,190.64667)" />
    <path
       id="path55"
       d="m 196.26654,25.83195 c 0,1.10047 -0.89209,1.99256 -1.99255,1.99256 -1.10048,0 -1.99256,-0.89209 -1.99256,-1.99256 0,-1.10047 0.89208,-1.99255 1.99256,-1.99255 1.10046,0 1.99255,0.89208 1.99255,1.99255 z"
       style="fill:#ff0000;fill-opacity:1;fill-rule:nonzero;stroke:#ff0000;stroke-width:0.3985;stroke-linecap:butt;stroke-linejoin:miter;stroke-miterlimit:10;stroke-dasharray:none;stroke-opacity:1"
       transform="matrix(1.3333333,0,0,-1.3333333,39.328,190.64667)" />
    <path
       id="path56"
       d="m 211.2107,121.44656 c 0,1.10047 -0.8921,1.99256 -1.99256,1.99256 -1.10048,0 -1.99255,-0.89209 -1.99255,-1.99256 0,-1.10048 0.89207,-1.99255 1.99255,-1.99255 1.10046,0 1.99256,0.89207 1.99256,1.99255 z"
       style="fill:#ff0000;fill-opacity:1;fill-rule:nonzero;stroke:#ff0000;stroke-width:0.3985;stroke-linecap:butt;stroke-linejoin:miter;stroke-miterlimit:10;stroke-dasharray:none;stroke-opacity:1"
       transform="matrix(1.3333333,0,0,-1.3333333,39.328,190.64667)" />
    <path
       id="path57"
       d="m 226.15485,45.62433 c 0,1.10047 -0.89209,1.99255 -1.99255,1.99255 -1.10049,0 -1.99256,-0.89208 -1.99256,-1.99255 0,-1.10048 0.89207,-1.99256 1.99256,-1.99256 1.10046,0 1.99255,0.89208 1.99255,1.99256 z"
       style="fill:#ff0000;fill-opacity:1;fill-rule:nonzero;stroke:#ff0000;stroke-width:0.3985;stroke-linecap:butt;stroke-linejoin:miter;stroke-miterlimit:10;stroke-dasharray:none;stroke-opacity:1"
       transform="matrix(1.3333333,0,0,-1.3333333,39.328,190.64667)" />
    <path
       id="path58"
       d="m 241.099,0 c 0,1.10046 -0.89209,1.99255 -1.99255,1.99255 -1.10048,0 -1.99256,-0.89209 -1.99256,-1.99255 0,-1.10046 0.89208,-1.99255 1.99256,-1.99255 1.10046,0 1.99255,0.89209 1.99255,1.99255 z"
       style="fill:#ff0000;fill-opacity:1;fill-rule:nonzero;stroke:#ff0000;stroke-width:0.3985;stroke-linecap:butt;stroke-linejoin:miter;stroke-miterlimit:10;stroke-dasharray:none;stroke-opacity:1"
       transform="matrix(1.3333333,0,0,-1.3333333,39.328,190.64667)" />
    <path
       id="path59"
       d="m 256.04315,124.79381 c 0,1.10046 -0.89209,1.99255 -1.99255,1.99255 -1.10048,0 -1.99256,-0.89209 -1.99256,-1.99255 0,-1.10047 0.89208,-1.99256 1.99256,-1.99256 1.10046,0 1.99255,0.89209 1.99255,1.99256 z"
       style="fill:#ff0000;fill-opacity:1;fill-rule:nonzero;stroke:#ff0000;stroke-width:0.3985;stroke-linecap:butt;stroke-linejoin:miter;stroke-miterlimit:10;stroke-dasharray:none;stroke-opacity:1"
       transform="matrix(1.3333333,0,0,-1.3333333,39.328,190.64667)" />
    <path
       id="path60"
       d="m 270.9873,34.9277 c 0,1.10048 -0.89209,1.99256 -1.99255,1.99256 -1.10048,0 -1.99255,-0.89208 -1.99255,-1.99256 0,-1.10046 0.89207,-1.99255 1.99255,-1.99255 1.10046,0 1.99255,0.89209 1.99255,1.99255 z"
       style="fill:#ff0000;fill-opacity:1;fill-rule:nonzero;stroke:#ff0000;stroke-width:0.3985;stroke-linecap:butt;stroke-linejoin:miter;stroke-miterlimit:10;stroke-dasharray:none;stroke-opacity:1"
       transform="matrix(1.3333333,0,0,-1.3333333,39.328,190.64667)" />
    <path
       id="path61"
       d="m 285.93146,7.56766 c 0,1.10048 -0.89209,1.99255 -1.99256,1.99255 -1.10048,0 -1.99255,-0.89207 -1.99255,-1.99255 0,-1.10046 0.89207,-1.99256 1.99255,-1.99256 1.10047,0 1.99256,0.8921 1.99256,1.99256 z"
       style="fill:#ff0000;fill-opacity:1;fill-rule:nonzero;stroke:#ff0000;stroke-width:0.3985;stroke-linecap:butt;stroke-linejoin:miter;stroke-miterlimit:10;stroke-dasharray:none;stroke-opacity:1"
       transform="matrix(1.3333333,0,0,-1.3333333,39.328,190.64667)" />
    <path
       id="path62"
       d="m 300.87561,127.26785 c 0,1.10048 -0.89209,1.99255 -1.99255,1.99255 -1.10048,0 -1.99256,-0.89207 -1.99256,-1.99255 0,-1.10046 0.89208,-1.99255 1.99256,-1.99255 1.10046,0 1.99255,0.89209 1.99255,1.99255 z"
       style="fill:#ff0000;fill-opacity:1;fill-rule:nonzero;stroke:#ff0000;stroke-width:0.3985;stroke-linecap:butt;stroke-linejoin:miter;stroke-miterlimit:10;stroke-dasharray:none;stroke-opacity:1"
       transform="matrix(1.3333333,0,0,-1.3333333,39.328,190.64667)" />
    <path
       id="path63"
       d="m 0.87921875,-0.58449219 c -0.0351563,0.15234375 -0.09375,0.375 -0.09375,0.421875 0,0.1875 0.140625,0.26953125 0.29296875,0.26953125 0.1171875,0 0.2929688,-0.0703125 0.3632813,-0.26953125 0.011719,-0.0234375 0.1289062,-0.4921875 0.1875,-0.73828125 L 1.851875,-1.8032422 c 0.058594,-0.2226562 0.1171875,-0.4335937 0.1757813,-0.6679687 0.035156,-0.1640625 0.1171875,-0.4570313 0.1289062,-0.4921875 0.140625,-0.3164063 0.6679688,-1.21875 1.6171875,-1.21875 0.4453125,0 0.5390625,0.3632812 0.5390625,0.6914062 0,0.6210938 -0.4921875,1.8984375 -0.6445312,2.3320313 -0.09375,0.22265621 -0.1054688,0.33984371 -0.1054688,0.45703121 0,0.46875 0.3515625,0.80859375 0.8203125,0.80859375 0.9375,0 1.3007813,-1.45312496 1.3007813,-1.53515626 0,-0.09375 -0.082031,-0.09375 -0.1171875,-0.09375 -0.09375,0 -0.09375,0.023437 -0.1523438,0.1757813 -0.1992187,0.67968746 -0.5273437,1.24218746 -1.0078125,1.24218746 -0.1757812,0 -0.2460937,-0.10546875 -0.2460937,-0.328125 0,-0.2578125 0.09375,-0.4921875 0.1875,-0.71484376 0.1875,-0.5273437 0.5976562,-1.6171875 0.5976562,-2.1914062 0,-0.6679688 -0.421875,-1.0664063 -1.1367187,-1.0664063 -0.9023438,0 -1.3828125,0.6445313 -1.5585938,0.8671875 -0.046875,-0.5507812 -0.4570312,-0.8671875 -0.9140625,-0.8671875 -0.45703125,0 -0.64453125,0.3867188 -0.75,0.5742188 -0.15234375,0.3398437 -0.29296875,0.9257812 -0.29296875,0.9609375 0,0.1054687 0.09375,0.1054687 0.1171875,0.1054687 0.09375,0 0.10546875,-0.011719 0.1640625,-0.234375 0.17578125,-0.703125 0.375,-1.1835937 0.72656255,-1.1835937 0.1992187,0 0.3164062,0.1289062 0.3164062,0.4570312 0,0.2109375 -0.035156,0.3164063 -0.1640625,0.8320313 z m 0,0"
       style="fill:#000000;fill-opacity:1;fill-rule:nonzero;stroke:none"
       aria-label="n"
       transform="matrix(1.3333333,0,0,1.3333333,234.59333,235.80667)" />
    <path
       id="path64"
       d="m 3.7142813,-3.7622734 c -0.1757813,-0.375 -0.46875,-0.6445313 -0.9140625,-0.6445313 -1.171875,0 -2.4023438,1.4648438 -2.4023438,2.9179688 0,0.93749996 0.55078125,1.59374996 1.3242188,1.59374996 0.1992187,0 0.703125,-0.03515625 1.3007812,-0.73828125 0.070312,0.41015625 0.421875,0.73828125 0.9023438,0.73828125 0.3515625,0 0.5742187,-0.22265625 0.7382812,-0.5390625 0.1640625,-0.36328125 0.2929688,-0.97265626 0.2929688,-0.99609376 0,-0.09375 -0.082031,-0.09375 -0.1171875,-0.09375 -0.09375,0 -0.1054688,0.035156 -0.140625,0.1757813 -0.1640625,0.64453121 -0.3515625,1.24218746 -0.75,1.24218746 -0.2695313,0 -0.3046875,-0.2578125 -0.3046875,-0.45703125 0,-0.22265625 0.023437,-0.3046875 0.1289062,-0.73828121 0.1171875,-0.421875 0.1289063,-0.5273438 0.2226563,-0.9023438 l 0.3515625,-1.3945312 c 0.070312,-0.28125 0.070312,-0.2929688 0.070312,-0.3398438 0,-0.1640625 -0.1171875,-0.2695312 -0.28125,-0.2695312 -0.2460938,0 -0.3867188,0.2226562 -0.4218745,0.4453125 z M 3.06975,-1.1841484 c -0.046875,0.1757812 -0.046875,0.19921871 -0.1992187,0.36328121 -0.4453125,0.55078125 -0.84375,0.71484375 -1.125,0.71484375 -0.5039063,0 -0.6445313,-0.55078125 -0.6445313,-0.93749996 0,-0.5039063 0.328125,-1.7226563 0.5507813,-2.1796875 0.3046875,-0.5976563 0.7617187,-0.9609375 1.1601562,-0.9609375 0.6445313,0 0.7851563,0.8203125 0.7851563,0.8789062 0,0.058594 -0.023437,0.1171875 -0.035156,0.1640625 z m 0,0"
       style="fill:#000000;fill-opacity:1;fill-rule:nonzero;stroke:none"
       aria-label="a"
       transform="matrix(0,-1.3333333,1.3333333,0,16.309333,122.968)" />
    <path
       id="path65"
       d="m 0.85648438,-0.43400781 c -0.0351563,0.0820313 -0.0703125,0.2578125 -0.0703125,0.28125 0,0.1523437475 0.1171875,0.22265625 0.23437502,0.22265625 0.1289062,0 0.234375,-0.09375 0.2695312,-0.15234375 0.035156,-0.05859375 0.09375,-0.29296875 0.1289063,-0.43359375 0.035156,-0.12890625 0.1054687,-0.45703125 0.1523437,-0.63281254 0.035156,-0.1523437 0.082031,-0.3046875 0.1171875,-0.4570312 0.082031,-0.2929688 0.09375,-0.3515625 0.2929688,-0.6328125 0.1992187,-0.28125 0.5273437,-0.6445313 1.0429687,-0.6445313 0.4101563,0 0.4101563,0.3632813 0.4101563,0.4921875 0,0.421875 -0.2929688,1.1953125 -0.4101563,1.48828129 -0.070312,0.1875 -0.1054687,0.2578125 -0.1054687,0.375 0,0.36328125 0.3046875,0.59765625 0.6679687,0.59765625 0.6914063,0 1.0078125,-0.9609375 1.0078125,-1.06640625 0,-0.09375 -0.09375,-0.09375 -0.1171875,-0.09375 -0.09375,0 -0.1054687,0.046875 -0.1289062,0.11718748 -0.1640625,0.5625 -0.46875,0.84375 -0.7382813,0.84375 -0.1523437,0 -0.1757812,-0.09375 -0.1757812,-0.24609375 0,-0.15234375 0.035156,-0.24609375 0.1523437,-0.5625 0.09375,-0.21093753 0.375,-0.94921873 0.375,-1.34765623 0,-0.6679688 -0.5390625,-0.7851563 -0.9023437,-0.7851563 -0.5859375,0 -0.9726563,0.3515625 -1.1835938,0.6328125 -0.046875,-0.4804687 -0.4570312,-0.6328125 -0.75,-0.6328125 -0.29296872,0 -0.45703122,0.2109375 -0.55078122,0.375 -0.15234375,0.2578125 -0.24609375,0.65625 -0.24609375,0.6914063 0,0.082031 0.09375,0.082031 0.1171875,0.082031 0.09375,0 0.10546875,-0.011719 0.15234375,-0.1992187 0.10546875,-0.421875 0.234375,-0.7617188 0.51562502,-0.7617188 0.1757812,0 0.2226562,0.1523438 0.2226562,0.3398438 0,0.140625 -0.058594,0.3984375 -0.1054687,0.5859375 -0.046875,0.1875 -0.1171875,0.46875 -0.1523438,0.6210937 z m 0,0"
       style="fill:#000000;fill-opacity:1;fill-rule:nonzero;stroke:none"
       aria-label="n"
       transform="matrix(0,-1.3333333,1.3333333,0,18.301333,115.94667)" />
    <path
       id="path66"
       d="m 2.0282109,-0.01227344 c 0,-0.6328125 -0.2460937,-1.04296876 -0.6445312,-1.04296876 -0.3515625,0 -0.52734376,0.26953126 -0.52734376,0.52734376 0,0.2578125 0.17578126,0.5273437525 0.52734376,0.5273437525 0.1523437,0 0.2929687,-0.0585937525 0.3984375,-0.1640625025 0.023437,0.796875 -0.2578125,1.39453129 -0.6914063,1.86328129 -0.058594,0.058594 -0.070312,0.070312 -0.070312,0.1171875 0,0.070312 0.046875,0.1054687 0.09375,0.1054687 0.1171875,0 0.9140625,-0.7851562 0.914062,-1.93359374 z m 0,0"
       style="fill:#000000;fill-opacity:1;fill-rule:nonzero;stroke:none"
       aria-label=","
       transform="matrix(0,-1.3333333,1.3333333,0,16.309333,108.716)" />
    <path
       id="path67"
       d="m 2.3777344,-6.8091484 c 0,0 0,-0.1054688 -0.1289063,-0.1054688 -0.2226562,0 -0.9492187,0.082031 -1.21875,0.1054688 -0.0703125,0 -0.18749997,0.011719 -0.18749997,0.1992187 0,0.1171875 0.09375,0.1171875 0.24609377,0.1171875 0.46875,0 0.4921875,0.070312 0.4921875,0.1640625 0,0.070312 -0.082031,0.4101563 -0.140625,0.6210938 l -0.80859377,3.2460937 c -0.12890625,0.5039063 -0.1640625,0.65625 -0.1640625,1.0078125 0,0.94921876 0.52734375,1.55859376 1.26562497,1.55859376 1.171875,0 2.4023438,-1.47656246 2.4023438,-2.91796876 0,-0.9023437 -0.5273438,-1.59375 -1.3242188,-1.59375 -0.4570312,0 -0.8671875,0.2929688 -1.171875,0.5976563 z m -0.9375,3.7734375 c 0.058594,-0.2226563 0.058594,-0.2460938 0.1523437,-0.3515625 0.4921875,-0.6445313 0.9375,-0.796875 1.1953125,-0.796875 0.3632813,0 0.6328125,0.2929687 0.6328125,0.9375 0,0.5859375 -0.328125,1.734375 -0.515625,2.109375 -0.328125,0.66796871 -0.7851562,1.03124996 -1.171875,1.03124996 -0.3398437,0 -0.6679687,-0.26953125 -0.6679687,-1.00781246 0,-0.1875 0,-0.3867188 0.1640625,-1.0078125 z m 0,0"
       style="fill:#000000;fill-opacity:1;fill-rule:nonzero;stroke:none"
       aria-label="b"
       transform="matrix(0,-1.3333333,1.3333333,0,16.309333,100.6)" />
    <path
       id="path68"
       d="m 0.85664063,-0.43400781 c -0.0351563,0.0820313 -0.0703125,0.2578125 -0.0703125,0.28125 0,0.1523437475 0.1171875,0.22265625 0.23437497,0.22265625 0.1289063,0 0.234375,-0.09375 0.2695313,-0.15234375 0.035156,-0.05859375 0.09375,-0.29296875 0.1289062,-0.43359375 0.035156,-0.12890625 0.1054688,-0.45703125 0.1523438,-0.63281254 0.035156,-0.1523437 0.082031,-0.3046875 0.1171875,-0.4570312 0.082031,-0.2929688 0.09375,-0.3515625 0.2929687,-0.6328125 0.1992188,-0.28125 0.5273438,-0.6445313 1.0429688,-0.6445313 0.4101562,0 0.4101562,0.3632813 0.4101562,0.4921875 0,0.421875 -0.2929687,1.1953125 -0.4101562,1.48828129 -0.070312,0.1875 -0.1054688,0.2578125 -0.1054688,0.375 0,0.36328125 0.3046875,0.59765625 0.6679688,0.59765625 0.6914062,0 1.0078125,-0.9609375 1.0078125,-1.06640625 0,-0.09375 -0.09375,-0.09375 -0.1171875,-0.09375 -0.09375,0 -0.1054688,0.046875 -0.1289063,0.11718748 -0.1640625,0.5625 -0.46875,0.84375 -0.7382812,0.84375 -0.1523438,0 -0.1757813,-0.09375 -0.1757813,-0.24609375 0,-0.15234375 0.035156,-0.24609375 0.1523438,-0.5625 0.09375,-0.21093753 0.375,-0.94921873 0.375,-1.34765623 0,-0.6679688 -0.5390625,-0.7851563 -0.9023438,-0.7851563 -0.5859375,0 -0.9726562,0.3515625 -1.1835937,0.6328125 -0.046875,-0.4804687 -0.4570313,-0.6328125 -0.75,-0.6328125 -0.29296877,0 -0.45703127,0.2109375 -0.55078127,0.375 -0.15234375,0.2578125 -0.24609375,0.65625 -0.24609375,0.6914063 0,0.082031 0.09375,0.082031 0.1171875,0.082031 0.09375,0 0.10546875,-0.011719 0.15234375,-0.1992187 0.10546875,-0.421875 0.234375,-0.7617188 0.51562497,-0.7617188 0.1757813,0 0.2226563,0.1523438 0.2226563,0.3398438 0,0.140625 -0.058594,0.3984375 -0.1054688,0.5859375 -0.046875,0.1875 -0.1171875,0.46875 -0.1523437,0.6210937 z m 0,0"
       style="fill:#000000;fill-opacity:1;fill-rule:nonzero;stroke:none"
       aria-label="n"
       transform="matrix(0,-1.3333333,1.3333333,0,18.301333,94.9)" />
    <path
       id="path69"
       d="m 210.5286,-9.52844 h 82.17627 V 19.80623 H 210.5286 Z"
       style="fill:#ffffff;fill-opacity:1;fill-rule:nonzero;stroke:#000000;stroke-width:0.3985;stroke-linecap:butt;stroke-linejoin:miter;stroke-miterlimit:10;stroke-dasharray:none;stroke-opacity:1"
       transform="matrix(1.3333333,0,0,-1.3333333,39.328,190.64667)" />
    <path
       id="path70"
       d="m 0,0 h 8.50412 8.50414"
       style="fill:none;stroke:#0000ff;stroke-width:0.3985;stroke-linecap:butt;stroke-linejoin:miter;stroke-miterlimit:10;stroke-dasharray:none;stroke-opacity:1"
       transform="matrix(1.3333333,0,0,-1.3333333,324.28,175.52933)" />
    <path
       id="path71"
       d="m 10.49667,0 c 0,1.10046 -0.89209,1.99255 -1.99255,1.99255 C 7.40364,1.99255 6.51157,1.10046 6.51157,0 c 0,-1.10046 0.89207,-1.99255 1.99255,-1.99255 1.10046,0 1.99255,0.89209 1.99255,1.99255 z"
       style="fill:#0000ff;fill-opacity:1;fill-rule:nonzero;stroke:#0000ff;stroke-width:0.3985;stroke-linecap:butt;stroke-linejoin:miter;stroke-miterlimit:10;stroke-dasharray:none;stroke-opacity:1"
       transform="matrix(1.3333333,0,0,-1.3333333,324.28,175.52933)" />
    <path
       id="path72"
       d="m 3.7150234,-3.761 c -0.1757812,-0.375 -0.46875,-0.6445312 -0.9140625,-0.6445312 -1.171875,0 -2.40234371,1.4648437 -2.40234371,2.9179687 0,0.9375 0.55078125,1.59375 1.32421871,1.59375 0.1992188,0 0.703125,-0.03515625 1.3007813,-0.73828125 0.070312,0.41015625 0.421875,0.73828125 0.9023437,0.73828125 0.3515625,0 0.5742188,-0.22265625 0.7382813,-0.5390625 0.1640625,-0.36328125 0.2929687,-0.9726562 0.2929687,-0.9960937 0,-0.09375 -0.082031,-0.09375 -0.1171875,-0.09375 -0.09375,0 -0.1054687,0.035156 -0.140625,0.1757812 -0.1640625,0.64453125 -0.3515625,1.2421875 -0.75,1.2421875 -0.2695312,0 -0.3046875,-0.2578125 -0.3046875,-0.45703125 0,-0.22265625 0.023437,-0.3046875 0.1289063,-0.73828125 0.1171875,-0.421875 0.1289062,-0.5273437 0.2226562,-0.9023437 l 0.3515625,-1.3945313 c 0.070312,-0.28125 0.070312,-0.2929687 0.070312,-0.3398437 0,-0.1640625 -0.1171875,-0.2695313 -0.28125,-0.2695313 -0.2460937,0 -0.3867187,0.2226563 -0.4218745,0.4453125 z m -0.6445312,2.578125 c -0.046875,0.1757813 -0.046875,0.19921875 -0.1992188,0.36328125 -0.4453125,0.55078125 -0.84375,0.71484375 -1.125,0.71484375 -0.5039062,0 -0.6445312,-0.55078125 -0.6445312,-0.9375 0,-0.5039062 0.328125,-1.7226562 0.5507812,-2.1796875 0.3046875,-0.5976562 0.7617188,-0.9609375 1.1601563,-0.9609375 0.6445312,0 0.7851562,0.8203125 0.7851562,0.8789063 0,0.058594 -0.023437,0.1171875 -0.035156,0.1640625 z m 0,0"
       style="fill:#000000;fill-opacity:1;fill-rule:nonzero;stroke:none"
       aria-label="a"
       transform="matrix(1.3333333,0,0,1.3333333,349.87867,179.51467)" />
    <path
       id="path73"
       d="m 0.85622656,-0.43273437 c -0.0351563,0.0820313 -0.0703125,0.2578125 -0.0703125,0.28125 0,0.152343745 0.1171875,0.22265625 0.23437504,0.22265625 0.1289062,0 0.234375,-0.09375 0.2695312,-0.15234375 0.035156,-0.05859375 0.09375,-0.29296875 0.1289063,-0.43359375 0.035156,-0.12890625 0.1054687,-0.45703125 0.1523437,-0.63281248 0.035156,-0.1523438 0.082031,-0.3046875 0.1171875,-0.4570313 0.082031,-0.2929687 0.09375,-0.3515625 0.2929688,-0.6328125 0.1992187,-0.28125 0.5273437,-0.6445312 1.0429687,-0.6445312 0.4101563,0 0.4101563,0.3632812 0.4101563,0.4921875 0,0.421875 -0.2929688,1.1953125 -0.4101563,1.48828123 -0.070312,0.1875 -0.1054687,0.2578125 -0.1054687,0.375 0,0.36328125 0.3046875,0.59765625 0.6679687,0.59765625 0.6914063,0 1.0078125,-0.9609375 1.0078125,-1.06640625 0,-0.09375 -0.09375,-0.09375 -0.1171875,-0.09375 -0.09375,0 -0.1054687,0.046875 -0.1289062,0.11718756 -0.1640625,0.5625 -0.46875,0.84375 -0.7382813,0.84375 -0.1523437,0 -0.1757812,-0.09375 -0.1757812,-0.24609375 0,-0.15234375 0.035156,-0.24609375 0.1523437,-0.5625 0.09375,-0.21093751 0.375,-0.94921881 0.375,-1.34765631 0,-0.6679687 -0.5390625,-0.7851562 -0.9023437,-0.7851562 -0.5859375,0 -0.9726563,0.3515625 -1.1835938,0.6328125 -0.046875,-0.4804688 -0.4570312,-0.6328125 -0.75,-0.6328125 -0.29296874,0 -0.45703124,0.2109375 -0.55078124,0.375 -0.15234375,0.2578125 -0.24609375,0.65625 -0.24609375,0.6914062 0,0.082031 0.09375,0.082031 0.1171875,0.082031 0.09375,0 0.10546875,-0.011719 0.15234375,-0.1992188 0.10546875,-0.421875 0.234375,-0.7617187 0.51562504,-0.7617187 0.1757812,0 0.2226562,0.1523437 0.2226562,0.3398437 0,0.140625 -0.058594,0.3984375 -0.1054687,0.5859375 -0.046875,0.1875 -0.1171875,0.46875 -0.1523438,0.6210938 z m 0,0"
       style="fill:#000000;fill-opacity:1;fill-rule:nonzero;stroke:none"
       aria-label="n"
       transform="matrix(1.3333333,0,0,1.3333333,356.90133,181.50667)" />
    <path
       id="path74"
       d="m 6.8429844,-3.2570937 c 0.1523437,0 0.3398437,0 0.3398437,-0.1992188 0,-0.1992187 -0.1875,-0.1992187 -0.328125,-0.1992187 H 0.88985938 c -0.140625,0 -0.328125,0 -0.328125,0.1992187 0,0.1992188 0.1875,0.1992188 0.33984375,0.1992188 z M 6.8547031,-1.3235 c 0.140625,0 0.328125,0 0.328125,-0.1992187 0,-0.1992188 -0.1875,-0.1992188 -0.3398437,-0.1992188 H 0.90157813 c -0.15234375,0 -0.33984375,0 -0.33984375,0.1992188 0,0.1992187 0.1875,0.1992187 0.328125,0.1992187 z m 5.7275389,-0.609375 c 0.222656,0.035156 1.03125,0.1992188 1.03125,0.9140625 0,0.515625 -0.351562,0.9140625 -1.125,0.9140625 -0.832031,0 -1.195312,-0.57421875 -1.382812,-1.4179687 C 11.070523,-1.651625 11.070523,-1.6985 10.965055,-1.6985 c -0.128907,0 -0.128907,0.070312 -0.128907,0.2578125 v 1.3125 c 0,0.1640625 0,0.234375 0.105469,0.234375 0.05859,0 0.07031,0 0.257813,-0.19921875 0.01172,-0.01171875 0.01172,-0.03515625 0.199218,-0.22265625 0.433594,0.421875 0.878907,0.421875 1.089844,0.421875 1.148438,0 1.605469,-0.66796875 1.605469,-1.3828125 0,-0.5273437 -0.292969,-0.8203125 -0.421875,-0.9492187 -0.328125,-0.3164063 -0.714844,-0.3984375 -1.136719,-0.46875 -0.550781,-0.1171875 -1.21875,-0.2460938 -1.21875,-0.8203125 0,-0.3515625 0.257813,-0.7617188 1.113281,-0.7617188 1.101563,0 1.148438,0.9023438 1.171875,1.2070313 0,0.09375 0.09375,0.09375 0.117188,0.09375 0.128906,0 0.128906,-0.046875 0.128906,-0.2460938 v -0.9960937 c 0,-0.1757813 0,-0.2460938 -0.117187,-0.2460938 -0.04687,0 -0.07031,0 -0.199219,0.1171875 -0.02344,0.046875 -0.128906,0.1289063 -0.164063,0.1640625 -0.375,-0.28125 -0.785156,-0.28125 -0.9375,-0.28125 -1.21875,0 -1.59375,0.6679688 -1.59375,1.2304688 0,0.3398437 0.164063,0.6210937 0.433594,0.84375 0.316406,0.2578125 0.597656,0.3164062 1.3125,0.4570312 z m 3.612305,-2.4726562 -1.394531,0.1171875 v 0.3046875 c 0.65625,0 0.738281,0.058594 0.738281,0.5507812 V -0.761 c 0,0.45703125 -0.105469,0.45703125 -0.773438,0.45703125 V 7.1875e-4 C 15.081266,-0.011 15.620328,-0.0344375 15.866422,-0.0344375 c 0.339844,0 0.691406,0.0234375 1.03125,0.03515625 v -0.3046875 c -0.65625,0 -0.703125,-0.0585938 -0.703125,-0.4453125 z m 0.04687,-1.734375 c 0,-0.3164063 -0.246094,-0.5273438 -0.527344,-0.5273438 -0.316406,0 -0.527344,0.2695313 -0.527344,0.5273438 0,0.2695312 0.210938,0.5273437 0.527344,0.5273437 0.28125,0 0.527344,-0.1992187 0.527344,-0.5273437 z m 2.06543,2.71875 V -0.761 c 0,0.45703125 -0.117188,0.45703125 -0.785157,0.45703125 v 0.3046875 c 0.351563,-0.01171875 0.855469,-0.03515625 1.125,-0.03515625 0.257813,0 0.785157,0.0234375 1.113282,0.03515625 v -0.3046875 c -0.65625,0 -0.773438,0 -0.773438,-0.45703125 v -1.828125 c 0,-1.03125 0.714844,-1.59375 1.347656,-1.59375 0.621094,0 0.738282,0.5390625 0.738282,1.1015625 V -0.761 c 0,0.45703125 -0.117188,0.45703125 -0.773438,0.45703125 v 0.3046875 c 0.339844,-0.01171875 0.855469,-0.03515625 1.125,-0.03515625 0.257813,0 0.773438,0.0234375 1.113281,0.03515625 v -0.3046875 c -0.515625,0 -0.773437,0 -0.785156,-0.3046875 V -2.5070937 c 0,-0.8554688 0,-1.171875 -0.304687,-1.5234375 -0.140625,-0.1757813 -0.46875,-0.375 -1.042969,-0.375 -0.726563,0 -1.195313,0.4335937 -1.476563,1.0546875 v -1.0546875 l -1.40625,0.1171875 v 0.3046875 c 0.703125,0 0.785157,0.070312 0.785157,0.5625 z m 0,0"
       style="fill:#000000;fill-opacity:1;fill-rule:nonzero;stroke:none"
       aria-label="=sin"
       transform="matrix(1.3333333,0,0,1.3333333,367.82133,179.51467)" />
    <path
       id="path75"
       d="m 0.88029687,-0.58521875 c -0.0351563,0.15234375 -0.09375,0.375 -0.09375,0.421875 0,0.1875 0.140625,0.26953125 0.29296873,0.26953125 0.1171875,0 0.2929688,-0.0703125 0.3632813,-0.26953125 0.011719,-0.0234375 0.1289062,-0.4921875 0.1875,-0.73828125 L 1.8529531,-1.8039687 C 1.9115469,-2.026625 1.9701406,-2.2375625 2.0287344,-2.4719375 2.0638906,-2.636 2.1459219,-2.9289687 2.1576406,-2.964125 c 0.140625,-0.3164062 0.6679688,-1.21875 1.6171875,-1.21875 0.4453125,0 0.5390625,0.3632813 0.5390625,0.6914063 0,0.6210937 -0.4921875,1.8984375 -0.6445312,2.3320312 -0.09375,0.22265625 -0.1054688,0.33984375 -0.1054688,0.45703125 0,0.46875 0.3515625,0.80859375 0.8203125,0.80859375 0.9375,0 1.3007813,-1.453125 1.3007813,-1.5351562 0,-0.09375 -0.082031,-0.09375 -0.1171875,-0.09375 -0.09375,0 -0.09375,0.023437 -0.1523438,0.1757812 C 5.2162344,-0.66725 4.8881094,-0.10475 4.4076406,-0.10475 c -0.1757812,0 -0.2460937,-0.10546875 -0.2460937,-0.328125 0,-0.2578125 0.09375,-0.4921875 0.1875,-0.7148437 0.1875,-0.5273438 0.5976562,-1.6171875 0.5976562,-2.1914063 0,-0.6679687 -0.421875,-1.0664062 -1.1367187,-1.0664062 -0.9023438,0 -1.3828125,0.6445312 -1.5585938,0.8671875 -0.046875,-0.5507813 -0.4570312,-0.8671875 -0.9140625,-0.8671875 -0.45703123,0 -0.64453123,0.3867187 -0.74999998,0.5742187 -0.15234375,0.3398438 -0.29296875,0.9257813 -0.29296875,0.9609375 0,0.1054688 0.09375,0.1054688 0.1171875,0.1054688 0.09375,0 0.10546875,-0.011719 0.1640625,-0.234375 0.17578125,-0.703125 0.375,-1.1835938 0.72656253,-1.1835938 0.1992187,0 0.3164062,0.1289063 0.3164062,0.4570313 0,0.2109375 -0.035156,0.3164062 -0.1640625,0.8320312 z M 10.351977,-7.089125 c 0.04687,-0.1289062 0.04687,-0.1757812 0.04687,-0.1875 0,-0.1054687 -0.08203,-0.1992187 -0.199219,-0.1992187 -0.07031,0 -0.128906,0.035156 -0.164063,0.09375 L 6.5785391,2.1100938 c -0.046875,0.1289062 -0.046875,0.1757812 -0.046875,0.1875 0,0.1054687 0.082031,0.1992187 0.1992187,0.1992187 0.1289063,0 0.1523438,-0.070312 0.2109375,-0.2460937 z m 1.488281,6.50390625 c -0.03516,0.15234375 -0.09375,0.375 -0.09375,0.421875 0,0.1875 0.140625,0.26953125 0.292969,0.26953125 0.117187,0 0.292968,-0.0703125 0.363281,-0.26953125 0.01172,-0.0234375 0.128906,-0.4921875 0.1875,-0.73828125 l 0.222656,-0.9023437 c 0.05859,-0.2226563 0.117188,-0.4335938 0.175781,-0.6679688 0.03516,-0.1640625 0.117188,-0.4570312 0.128907,-0.4921875 0.140625,-0.3164062 0.667968,-1.21875 1.617187,-1.21875 0.445313,0 0.539063,0.3632813 0.539063,0.6914063 0,0.6210937 -0.492188,1.8984375 -0.644532,2.3320312 -0.09375,0.22265625 -0.105468,0.33984375 -0.105468,0.45703125 0,0.46875 0.351562,0.80859375 0.820312,0.80859375 0.9375,0 1.300781,-1.453125 1.300781,-1.5351562 0,-0.09375 -0.08203,-0.09375 -0.117187,-0.09375 -0.09375,0 -0.09375,0.023437 -0.152344,0.1757812 -0.199219,0.6796875 -0.527344,1.2421875 -1.007812,1.2421875 -0.175782,0 -0.246094,-0.10546875 -0.246094,-0.328125 0,-0.2578125 0.09375,-0.4921875 0.1875,-0.7148437 0.1875,-0.5273438 0.597656,-1.6171875 0.597656,-2.1914063 0,-0.6679687 -0.421875,-1.0664062 -1.136719,-1.0664062 -0.902343,0 -1.382812,0.6445312 -1.558593,0.8671875 -0.04687,-0.5507813 -0.457032,-0.8671875 -0.914063,-0.8671875 -0.457031,0 -0.644531,0.3867187 -0.75,0.5742187 -0.152344,0.3398438 -0.292969,0.9257813 -0.292969,0.9609375 0,0.1054688 0.09375,0.1054688 0.117188,0.1054688 0.09375,0 0.105469,-0.011719 0.164062,-0.234375 0.175782,-0.703125 0.375,-1.1835938 0.726563,-1.1835938 0.199219,0 0.316406,0.1289063 0.316406,0.4570313 0,0.2109375 -0.03516,0.3164062 -0.164062,0.8320312 z m 0,0"
       style="fill:#000000;fill-opacity:1;fill-rule:nonzero;stroke:none"
       aria-label="n/n"
       transform="matrix(1.3333333,0,0,1.3333333,400.36533,179.51467)" />
    <path
       id="path76"
       d="m 0,0 h 8.50412 8.50414"
       style="fill:none;stroke:#ff0000;stroke-width:0.3985;stroke-linecap:butt;stroke-linejoin:miter;stroke-miterlimit:10;stroke-dasharray:none;stroke-opacity:1"
       transform="matrix(1.3333333,0,0,-1.3333333,324.28,192.42933)" />
    <path
       id="path77"
       d="m 10.49667,0 c 0,1.10046 -0.89209,1.99255 -1.99255,1.99255 C 7.40364,1.99255 6.51157,1.10046 6.51157,0 c 0,-1.10046 0.89207,-1.99255 1.99255,-1.99255 1.10046,0 1.99255,0.89209 1.99255,1.99255 z"
       style="fill:#ff0000;fill-opacity:1;fill-rule:nonzero;stroke:#ff0000;stroke-width:0.3985;stroke-linecap:butt;stroke-linejoin:miter;stroke-miterlimit:10;stroke-dasharray:none;stroke-opacity:1"
       transform="matrix(1.3333333,0,0,-1.3333333,324.28,192.42933)" />
    <path
       id="path78"
       d="m 2.3796484,-6.8074375 c 0,0 0,-0.1054688 -0.1289062,-0.1054688 -0.2226563,0 -0.9492188,0.082031 -1.21875,0.1054688 -0.0703125,0 -0.18750001,0.011719 -0.18750001,0.1992187 0,0.1171875 0.09375,0.1171875 0.24609371,0.1171875 0.46875,0 0.4921875,0.070312 0.4921875,0.1640625 0,0.070312 -0.082031,0.4101563 -0.140625,0.6210938 l -0.80859371,3.2460937 c -0.12890625,0.5039063 -0.1640625,0.65625 -0.1640625,1.0078125 0,0.9492188 0.52734375,1.5585938 1.26562501,1.5585938 1.171875,0 2.4023437,-1.4765625 2.4023437,-2.9179688 0,-0.9023437 -0.5273437,-1.59375 -1.3242187,-1.59375 -0.4570313,0 -0.8671875,0.2929688 -1.171875,0.5976563 z M 1.4421484,-3.034 c 0.058594,-0.2226563 0.058594,-0.2460938 0.1523438,-0.3515625 0.4921875,-0.6445313 0.9375,-0.796875 1.1953125,-0.796875 0.3632812,0 0.6328125,0.2929687 0.6328125,0.9375 0,0.5859375 -0.328125,1.734375 -0.515625,2.109375 -0.328125,0.66796875 -0.7851563,1.03125 -1.171875,1.03125 -0.3398438,0 -0.6679688,-0.26953125 -0.6679688,-1.0078125 0,-0.1875 0,-0.3867188 0.1640625,-1.0078125 z m 0,0"
       style="fill:#000000;fill-opacity:1;fill-rule:nonzero;stroke:none"
       aria-label="b"
       transform="matrix(1.3333333,0,0,1.3333333,357.84667,196.04533)" />
    <path
       id="path79"
       d="m 0.854625,-0.43229688 c -0.0351563,0.0820313 -0.0703125,0.2578125 -0.0703125,0.28125 0,0.15234375 0.1171875,0.22265625 0.234375,0.22265625 0.1289063,0 0.234375,-0.09375 0.2695313,-0.15234375 0.035156,-0.05859375 0.09375,-0.29296875 0.1289062,-0.43359375 0.035156,-0.12890625 0.1054688,-0.45703125 0.1523438,-0.63281247 0.035156,-0.1523438 0.082031,-0.3046875 0.1171875,-0.4570313 0.082031,-0.2929687 0.09375,-0.3515625 0.2929687,-0.6328125 0.1992188,-0.28125 0.5273438,-0.6445312 1.0429688,-0.6445312 0.4101562,0 0.4101562,0.3632812 0.4101562,0.4921875 0,0.421875 -0.2929687,1.1953125 -0.4101562,1.48828122 -0.070312,0.1875 -0.1054688,0.2578125 -0.1054688,0.375 0,0.36328125 0.3046875,0.59765625 0.6679688,0.59765625 0.6914062,0 1.0078125,-0.9609375 1.0078125,-1.06640625 0,-0.09375 -0.09375,-0.09375 -0.1171875,-0.09375 -0.09375,0 -0.1054688,0.046875 -0.1289063,0.11718754 -0.1640625,0.5625 -0.46875,0.84375 -0.7382812,0.84375 -0.1523438,0 -0.1757813,-0.09375 -0.1757813,-0.24609375 0,-0.15234375 0.035156,-0.24609375 0.1523438,-0.5625 0.09375,-0.21093749 0.375,-0.94921879 0.375,-1.34765629 0,-0.6679687 -0.5390625,-0.7851562 -0.9023438,-0.7851562 -0.5859375,0 -0.9726562,0.3515625 -1.1835937,0.6328125 -0.046875,-0.4804688 -0.4570313,-0.6328125 -0.75,-0.6328125 -0.2929688,0 -0.4570313,0.2109375 -0.5507813,0.375 -0.15234375,0.2578125 -0.24609375,0.65625 -0.24609375,0.6914062 0,0.082031 0.09375,0.082031 0.1171875,0.082031 0.09375,0 0.10546875,-0.011719 0.15234375,-0.1992188 0.10546875,-0.421875 0.234375,-0.7617187 0.515625,-0.7617187 0.1757813,0 0.2226563,0.1523437 0.2226563,0.3398437 0,0.140625 -0.058594,0.3984375 -0.1054688,0.5859375 -0.046875,0.1875 -0.1171875,0.46875 -0.1523437,0.6210938 z m 0,0"
       style="fill:#000000;fill-opacity:1;fill-rule:nonzero;stroke:none"
       aria-label="n"
       transform="matrix(1.3333333,0,0,1.3333333,363.548,198.03733)" />
    <path
       id="path80"
       d="m 6.8443125,-3.2566563 c 0.1523438,0 0.3398438,0 0.3398438,-0.1992187 0,-0.1992188 -0.1875,-0.1992188 -0.328125,-0.1992188 H 0.8911875 c -0.140625,0 -0.328125,0 -0.328125,0.1992188 0,0.1992187 0.1875,0.1992187 0.33984375,0.1992187 z m 0.011719,1.9335938 c 0.140625,0 0.328125,0 0.328125,-0.1992188 0,-0.1992187 -0.1875,-0.1992187 -0.3398438,-0.1992187 H 0.90290625 c -0.15234375,0 -0.33984375,0 -0.33984375,0.1992187 0,0.1992188 0.1875,0.1992188 0.328125,0.1992188 z m 5.7275385,-0.609375 c 0.222657,0.035156 1.03125,0.1992187 1.03125,0.9140625 0,0.515625 -0.351562,0.9140625 -1.125,0.9140625 -0.832031,0 -1.195312,-0.57421875 -1.382812,-1.4179688 -0.03516,-0.1289062 -0.03516,-0.1757812 -0.140625,-0.1757812 -0.128906,0 -0.128906,0.070312 -0.128906,0.2578125 v 1.3125 c 0,0.1640625 0,0.234375 0.105468,0.234375 0.05859,0 0.07031,0 0.257813,-0.19921875 0.01172,-0.01171875 0.01172,-0.03515625 0.199219,-0.22265625 0.433593,0.421875 0.878906,0.421875 1.089843,0.421875 1.148438,0 1.605469,-0.66796875 1.605469,-1.3828125 0,-0.5273438 -0.292969,-0.8203125 -0.421875,-0.9492188 -0.328125,-0.3164062 -0.714844,-0.3984375 -1.136719,-0.46875 -0.550781,-0.1171875 -1.21875,-0.2460937 -1.21875,-0.8203125 0,-0.3515625 0.257813,-0.7617187 1.113282,-0.7617187 1.101562,0 1.148437,0.9023437 1.171875,1.2070312 0,0.09375 0.09375,0.09375 0.117187,0.09375 0.128906,0 0.128906,-0.046875 0.128906,-0.2460937 v -0.9960938 c 0,-0.1757812 0,-0.2460937 -0.117187,-0.2460937 -0.04687,0 -0.07031,0 -0.199219,0.1171875 -0.02344,0.046875 -0.128906,0.1289062 -0.164062,0.1640625 -0.375,-0.28125 -0.785157,-0.28125 -0.9375,-0.28125 -1.21875,0 -1.59375,0.6679687 -1.59375,1.2304687 0,0.3398438 0.164062,0.6210938 0.433593,0.84375 0.316407,0.2578125 0.597657,0.3164063 1.3125,0.4570313 z m 3.612305,-2.4726563 -1.394531,0.1171875 v 0.3046875 c 0.65625,0 0.738281,0.058594 0.738281,0.5507813 v 2.671875 c 0,0.45703125 -0.105469,0.45703125 -0.773437,0.45703125 v 0.3046875 C 15.082594,-0.0105625 15.621656,-0.034 15.86775,-0.034 c 0.339844,0 0.691406,0.0234375 1.03125,0.03515625 v -0.3046875 c -0.65625,0 -0.703125,-0.0585938 -0.703125,-0.4453125 z m 0.04687,-1.734375 c 0,-0.3164062 -0.246094,-0.5273437 -0.527344,-0.5273437 -0.316406,0 -0.527343,0.2695312 -0.527343,0.5273437 0,0.2695313 0.210937,0.5273438 0.527343,0.5273438 0.28125,0 0.527344,-0.1992188 0.527344,-0.5273438 z m 2.06543,2.71875 v 2.6601563 c 0,0.45703125 -0.117188,0.45703125 -0.785157,0.45703125 v 0.3046875 C 17.874586,-0.0105625 18.378492,-0.034 18.648023,-0.034 c 0.257813,0 0.785157,0.0234375 1.113282,0.03515625 v -0.3046875 c -0.65625,0 -0.773438,0 -0.773438,-0.45703125 v -1.828125 c 0,-1.03125 0.714844,-1.59375 1.347656,-1.59375 0.621094,0 0.738282,0.5390625 0.738282,1.1015625 v 2.3203125 c 0,0.45703125 -0.117188,0.45703125 -0.773438,0.45703125 v 0.3046875 C 20.640211,-0.0105625 21.155836,-0.034 21.425367,-0.034 c 0.257813,0 0.773438,0.0234375 1.113281,0.03515625 v -0.3046875 c -0.515625,0 -0.773437,0 -0.785156,-0.3046875 V -2.5066563 c 0,-0.8554687 0,-1.171875 -0.304687,-1.5234375 -0.140625,-0.1757812 -0.46875,-0.375 -1.042969,-0.375 -0.726563,0 -1.195313,0.4335938 -1.476563,1.0546875 v -1.0546875 l -1.40625,0.1171875 v 0.3046875 c 0.703125,0 0.785157,0.070312 0.785157,0.5625 z m 0,0"
       style="fill:#000000;fill-opacity:1;fill-rule:nonzero;stroke:none"
       aria-label="=sin"
       transform="matrix(1.3333333,0,0,1.3333333,374.468,196.04533)" />
    <path
       id="path81"
       d="m 0.87769531,-0.58478125 c -0.0351563,0.15234375 -0.09375,0.375 -0.09375,0.421875 0,0.1875 0.140625,0.26953125 0.29296879,0.26953125 0.1171875,0 0.2929687,-0.0703125 0.3632812,-0.26953125 0.011719,-0.0234375 0.1289063,-0.4921875 0.1875,-0.73828125 L 1.8503516,-1.8035313 C 1.9089453,-2.0261875 1.9675391,-2.237125 2.0261328,-2.4715 c 0.035156,-0.1640625 0.1171875,-0.4570313 0.1289063,-0.4921875 0.140625,-0.3164063 0.6679687,-1.21875 1.6171875,-1.21875 0.4453125,0 0.5390625,0.3632812 0.5390625,0.6914062 0,0.6210938 -0.4921875,1.8984375 -0.6445313,2.3320313 -0.09375,0.22265625 -0.1054687,0.33984375 -0.1054687,0.45703125 0,0.46875 0.3515625,0.80859375 0.8203125,0.80859375 0.9375,0 1.3007812,-1.453125 1.3007812,-1.5351563 0,-0.09375 -0.082031,-0.09375 -0.1171875,-0.09375 -0.09375,0 -0.09375,0.023437 -0.1523437,0.1757813 -0.1992188,0.6796875 -0.5273438,1.2421875 -1.0078125,1.2421875 -0.1757813,0 -0.2460938,-0.10546875 -0.2460938,-0.328125 0,-0.2578125 0.09375,-0.4921875 0.1875,-0.7148438 0.1875,-0.5273437 0.5976563,-1.6171875 0.5976563,-2.1914062 0,-0.6679688 -0.421875,-1.0664063 -1.1367188,-1.0664063 -0.9023437,0 -1.3828125,0.6445313 -1.5585937,0.8671875 -0.046875,-0.5507812 -0.4570313,-0.8671875 -0.9140625,-0.8671875 -0.45703129,0 -0.64453129,0.3867188 -0.75000004,0.5742188 -0.15234375,0.3398437 -0.29296875,0.9257812 -0.29296875,0.9609375 0,0.1054687 0.09375,0.1054687 0.1171875,0.1054687 0.09375,0 0.10546875,-0.011719 0.1640625,-0.234375 0.17578125,-0.703125 0.375,-1.1835937 0.72656249,-1.1835937 0.1992188,0 0.3164063,0.1289062 0.3164063,0.4570312 0,0.2109375 -0.035156,0.3164063 -0.1640625,0.8320313 z m 0,0"
       style="fill:#000000;fill-opacity:1;fill-rule:nonzero;stroke:none"
       aria-label="n"
       transform="matrix(1.3333333,0,0,1.3333333,407.01333,196.04533)" />
  </g>
</svg>
