<svg xmlns="http://www.w3.org/2000/svg" viewBox="0 0 32 32" fill="none" aria-hidden="true"><g transform="translate(2 2) scale(1.1666667)"><path d="M4 5q8-3 16 0l-1 3Q12 5 5 8ZM3 11q8-2 17 0l1 3Q11 12 4 14ZM5 18q8-3 14 0v3q-8-3-14 0Z" fill="#f78878" stroke="#d1f6ec" stroke-width="2.4000000000000004" stroke-linecap="round" stroke-linejoin="round"/><path d="M4 5q8-3 16 0l-1 3Q12 5 5 8ZM3 11q8-2 17 0l1 3Q11 12 4 14ZM5 18q8-3 14 0v3q-8-3-14 0Z" fill="#f78878" stroke="#254e5c" stroke-width="1.3" stroke-linecap="round" stroke-linejoin="round"/><path d="M7 6h3M7 12h5M8 19h4" fill="none" stroke="#fff0ce" stroke-width="0.8" stroke-linecap="round" stroke-linejoin="round"/></g></svg>
