<svg xmlns="http://www.w3.org/2000/svg" viewBox="0 0 32 32" fill="none" aria-hidden="true"><g transform="translate(2 2) scale(1.1666667)"><path d="M3 21h18" fill="none" stroke="#d1f6ec" stroke-width="2.4000000000000004" stroke-linecap="round" stroke-linejoin="round"/><path d="M3 21h18" fill="none" stroke="#254e5c" stroke-width="1.3" stroke-linecap="round" stroke-linejoin="round"/><path d="M5 20v-7l-2-3 2-2 2 3 2-2 1 2-2 3v6ZM12 20V7l-2-2 2-2 2 4v5l3-3 2 2-5 5v4Z" fill="#f78878" stroke="#d1f6ec" stroke-width="2.4000000000000004" stroke-linecap="round" stroke-linejoin="round"/><path d="M5 20v-7l-2-3 2-2 2 3 2-2 1 2-2 3v6ZM12 20V7l-2-2 2-2 2 4v5l3-3 2 2-5 5v4Z" fill="#f78878" stroke="#254e5c" stroke-width="1.3" stroke-linecap="round" stroke-linejoin="round"/><path d="M18 20v-5l2-2 1 2-1 5Z" fill="#77d8b5" stroke="#d1f6ec" stroke-width="2.4000000000000004" stroke-linecap="round" stroke-linejoin="round"/><path d="M18 20v-5l2-2 1 2-1 5Z" fill="#77d8b5" stroke="#254e5c" stroke-width="1.3" stroke-linecap="round" stroke-linejoin="round"/></g></svg>
