<svg xmlns="http://www.w3.org/2000/svg" viewBox="0 0 32 32" fill="none" aria-hidden="true"><g transform="translate(2 2) scale(1.1666667)"><path d="M9 5 H21 M9 12 H18 M9 19 H21" fill="none" stroke="#fff0c9" stroke-width="2.8" stroke-linecap="round" stroke-linejoin="round"/><path d="M9 5 H21 M9 12 H18 M9 19 H21" fill="none" stroke="#624128" stroke-width="1.7" stroke-linecap="round" stroke-linejoin="round"/><path d="M3 5 L5 3 L7 5 L5 7 Z M3 12 L5 10 L7 12 L5 14 Z M3 19 L5 17 L7 19 L5 21 Z" fill="#eabf70" stroke="#fff0c9" stroke-width="2.1" stroke-linecap="round" stroke-linejoin="round"/><path d="M3 5 L5 3 L7 5 L5 7 Z M3 12 L5 10 L7 12 L5 14 Z M3 19 L5 17 L7 19 L5 21 Z" fill="#eabf70" stroke="#624128" stroke-width="1" stroke-linecap="round" stroke-linejoin="round"/></g></svg>
