<svg xmlns="http://www.w3.org/2000/svg" viewBox="0 0 32 32" fill="none" aria-hidden="true"><g transform="translate(2 2) scale(1.1666667)"><g transform="rotate(-30 12 12)"><ellipse cx="12" cy="12" rx="9" ry="3.8" fill="none" stroke="#17384e" stroke-width="2.2"/><ellipse cx="12" cy="12" rx="9" ry="3.8" fill="none" stroke="#66ddea" stroke-width="1.1"/></g><g transform="rotate(38 12 12)"><ellipse cx="12" cy="12" rx="7" ry="2.6" fill="none" stroke="#17384e" stroke-width="2.2"/><ellipse cx="12" cy="12" rx="7" ry="2.6" fill="none" stroke="#c1a6ff" stroke-width="1.1"/></g><path d="M12 7.5Q12.6 11.4 16.5 12Q12.6 12.6 12 16.5Q11.4 12.6 7.5 12Q11.4 11.4 12 7.5Z" fill="#ffd584" stroke="#17384e" stroke-width="1.9500000000000002" stroke-linecap="round" stroke-linejoin="round"/><path d="M12 7.5Q12.6 11.4 16.5 12Q12.6 12.6 12 16.5Q11.4 12.6 7.5 12Q11.4 11.4 12 7.5Z" fill="none" stroke="#ffd584" stroke-width="0.85" stroke-linecap="round" stroke-linejoin="round"/><circle cx="5" cy="7.5" r="1.2" fill="#ffd584" stroke="#17384e" stroke-width=".65"/></g></svg>
