<svg xmlns="http://www.w3.org/2000/svg" viewBox="0 0 32 32" fill="none" aria-hidden="true"><g transform="translate(2 2) scale(1.1666667)"><path d="M10 7 L13 4 C19 0 24 7 19 11 L16 14 M14 17 L11 20 C5 24 0 17 5 13 L8 10 M8 16 L16 8" stroke-linecap="round" stroke-linejoin="round" fill="none" stroke="#34475f" stroke-width="2.5"/><path d="M10 7 L13 4 C19 0 24 7 19 11 L16 14 M14 17 L11 20 C5 24 0 17 5 13 L8 10 M8 16 L16 8" stroke-linecap="round" stroke-linejoin="round" fill="none" stroke="#e5effa" stroke-width="1.35"/><path d="M6 16 Q5 19 9 19 M16 5 Q20 4 20 8" stroke-linecap="round" stroke-linejoin="round" fill="none" stroke="#34475f" stroke-width="1.95"/><path d="M6 16 Q5 19 9 19 M16 5 Q20 4 20 8" stroke-linecap="round" stroke-linejoin="round" fill="none" stroke="#99c9e1" stroke-width="0.8"/></g></svg>
