<svg xmlns="http://www.w3.org/2000/svg" viewBox="0 0 32 32" fill="none" aria-hidden="true"><g transform="translate(2 2) scale(1.1666667)"><path d="M3 9V3h6M15 3h6v6M21 15v6h-6M9 21H3v-6" fill="none" stroke="#243047" stroke-width="2.7" stroke-linecap="round" stroke-linejoin="round"/><path d="M3 9V3h6M15 3h6v6M21 15v6h-6M9 21H3v-6" fill="none" stroke="#38F4F4" stroke-width="1.5" stroke-linecap="round" stroke-linejoin="round"/><path d="M3 9V3h6M15 3h6v6M21 15v6h-6M9 21H3v-6" fill="none" stroke="#F4FFFF" stroke-opacity=".68" stroke-width=".35" stroke-linecap="round" stroke-linejoin="round"/><path d="M8 8l-5-5m13 5 5-5M8 16l-5 5m13-5 5 5" fill="none" stroke="#243047" stroke-width="2.3499999999999996" stroke-linecap="round" stroke-linejoin="round"/><path d="M8 8l-5-5m13 5 5-5M8 16l-5 5m13-5 5 5" fill="none" stroke="#FF63BB" stroke-width="1.15" stroke-linecap="round" stroke-linejoin="round"/><path d="M8 8l-5-5m13 5 5-5M8 16l-5 5m13-5 5 5" fill="none" stroke="#F4FFFF" stroke-opacity=".68" stroke-width=".35" stroke-linecap="round" stroke-linejoin="round"/></g></svg>
