<svg xmlns="http://www.w3.org/2000/svg" viewBox="0 0 32 32" fill="none" aria-hidden="true"><g transform="translate(2 2) scale(1.1666667)"><g transform="translate(1.44 1.44) scale(.88)"><ellipse cx="12" cy="12" rx="9" ry="9" fill="#e5f4f4" stroke="#e5f4f4" stroke-width="2.3" stroke-linecap="round" stroke-linejoin="round"/><ellipse cx="12" cy="12" rx="9" ry="9" fill="#e5f4f4" stroke="#244a59" stroke-width="1.3" stroke-linecap="round" stroke-linejoin="round"/><path d="M15 5l-1 9-5 5 1-9Z" fill="#75cbd9" stroke="#e5f4f4" stroke-width="2.45" stroke-linecap="round" stroke-linejoin="round"/><path d="M15 5l-1 9-5 5 1-9Z" fill="#75cbd9" stroke="#244a59" stroke-width="1.45" stroke-linecap="round" stroke-linejoin="round"/><path d="M15 5l-5 5 4 4Z" fill="#e79458" stroke="#e5f4f4" stroke-width="2.45" stroke-linecap="round" stroke-linejoin="round"/><path d="M15 5l-5 5 4 4Z" fill="#e79458" stroke="#244a59" stroke-width="1.45" stroke-linecap="round" stroke-linejoin="round"/><path d="M12 3v1m9 8h-1M3 12h1m8 8v1" fill="none" stroke="#e5f4f4" stroke-width="2.45" stroke-linecap="round" stroke-linejoin="round"/><path d="M12 3v1m9 8h-1M3 12h1m8 8v1" fill="none" stroke="#244a59" stroke-width="1.45" stroke-linecap="round" stroke-linejoin="round"/></g></g></svg>
