<svg xmlns="http://www.w3.org/2000/svg" viewBox="0 0 32 32" fill="none" aria-hidden="true"><g transform="translate(2 2) scale(1.1666667)"><g transform="translate(1.44 1.44) scale(.88)"><path d="M4 21l3-8h10l3 8Z" fill="#75cbd9" stroke="#e5f4f4" stroke-width="2.45" stroke-linecap="round" stroke-linejoin="round"/><path d="M4 21l3-8h10l3 8Z" fill="#75cbd9" stroke="#244a59" stroke-width="1.45" stroke-linecap="round" stroke-linejoin="round"/><path d="M7 13q5-3 10 0M12 12v9" fill="#e5f4f4" stroke="#e5f4f4" stroke-width="2.45" stroke-linecap="round" stroke-linejoin="round"/><path d="M7 13q5-3 10 0M12 12v9" fill="#e5f4f4" stroke="#244a59" stroke-width="1.45" stroke-linecap="round" stroke-linejoin="round"/><path d="M3 9a9 9 0 0 1 18 0q-3-2-6 0-3-2-6 0-3-2-6 0Z" fill="#f4c75e" stroke="#e5f4f4" stroke-width="2.45" stroke-linecap="round" stroke-linejoin="round"/><path d="M3 9a9 9 0 0 1 18 0q-3-2-6 0-3-2-6 0-3-2-6 0Z" fill="#f4c75e" stroke="#244a59" stroke-width="1.45" stroke-linecap="round" stroke-linejoin="round"/><path d="M12 2q-3 2-3 7m3-7q3 2 3 7" fill="none" stroke="#e5f4f4" stroke-width="2.45" stroke-linecap="round" stroke-linejoin="round"/><path d="M12 2q-3 2-3 7m3-7q3 2 3 7" fill="none" stroke="#244a59" stroke-width="1.45" stroke-linecap="round" stroke-linejoin="round"/><path d="M6 18l2-2 2 2m4 0 2-2 2 2" fill="none" stroke="#e5f4f4" stroke-width="2.45" stroke-linecap="round" stroke-linejoin="round"/><path d="M6 18l2-2 2 2m4 0 2-2 2 2" fill="none" stroke="#244a59" stroke-width="1.45" stroke-linecap="round" stroke-linejoin="round"/></g></g></svg>
