<svg xmlns="http://www.w3.org/2000/svg" viewBox="0 0 32 32" fill="none" aria-hidden="true"><g transform="translate(2 2) scale(1.1666667)"><g transform="translate(1.2 1.2) scale(.9)"><path d="M7 3.3Q3 3.2 3 7.5L3.8 18q.3 3 4 2.7l10.5-.5q3-.3 2.7-4L20.3 6q-.3-3.4-4-3Z" fill="#ffbd65" stroke="#ffe7c2" stroke-width="2.6" stroke-linecap="round" stroke-linejoin="round"/><path d="M7 3.3Q3 3.2 3 7.5L3.8 18q.3 3 4 2.7l10.5-.5q3-.3 2.7-4L20.3 6q-.3-3.4-4-3Z" fill="#ffbd65" stroke="#68415e" stroke-width="1.5" stroke-linecap="round" stroke-linejoin="round"/><circle cx="7.5" cy="7.5" r="1.55" fill="#68415e"/><circle cx="16.5" cy="7.5" r="1.55" fill="#68415e"/><circle cx="12" cy="12" r="1.55" fill="#68415e"/><circle cx="7.5" cy="16.5" r="1.55" fill="#68415e"/><circle cx="16.5" cy="16.5" r="1.55" fill="#68415e"/></g></g></svg>
